<svg width="48" height="48" viewBox="0 0 48 48" fill="none" xmlns="http://www.w3.org/2000/svg">
<rect width="48" height="48" rx="8.88889" fill="black"/>
<path d="M18.0146 29.5557L14.7848 25.7074H16.2416L19.4852 29.5419V29.5557H18.0146ZM9.65833 29.5557V19.6738H17.9046C18.207 19.6738 18.4819 19.7517 18.7293 19.9075C18.9858 20.0541 19.1874 20.2511 19.334 20.4985C19.4806 20.7458 19.5539 21.0207 19.5539 21.3231V24.223C19.5539 24.5254 19.4806 24.8003 19.334 25.0477C19.1874 25.2951 18.9858 25.4966 18.7293 25.6524C18.4819 25.799 18.207 25.8723 17.9046 25.8723H10.7716V29.5557H9.65833ZM11.3076 24.7453H17.9046C18.0513 24.7453 18.1749 24.6949 18.2757 24.5941C18.3857 24.4933 18.4407 24.3696 18.4407 24.223V21.3231C18.4407 21.1765 18.3857 21.0528 18.2757 20.952C18.1749 20.8421 18.0513 20.7871 17.9046 20.7871H11.3076C11.161 20.7871 11.0327 20.8421 10.9228 20.952C10.822 21.0528 10.7716 21.1765 10.7716 21.3231V24.223C10.7716 24.3696 10.822 24.4933 10.9228 24.5941C11.0327 24.6949 11.161 24.7453 11.3076 24.7453ZM22.594 29.5557C22.2916 29.5557 22.0122 29.4824 21.7556 29.3358C21.5082 29.18 21.3066 28.9784 21.1509 28.731C21.0043 28.4745 20.931 28.195 20.931 27.8927V23.2472C20.931 22.9449 21.0043 22.67 21.1509 22.4226C21.3066 22.166 21.5082 21.9645 21.7556 21.8179C22.0122 21.6621 22.2916 21.5842 22.594 21.5842H27.3769C27.6884 21.5842 27.9678 21.6621 28.2152 21.8179C28.4718 21.9645 28.6734 22.166 28.82 22.4226C28.9757 22.67 29.0536 22.9449 29.0536 23.2472V26.1334H22.058V27.8927C22.058 28.0393 22.1084 28.1675 22.2092 28.2775C22.3191 28.3783 22.4474 28.4287 22.594 28.4287H29.0536V29.5557H22.594ZM22.058 25.0064H27.9129V23.2472C27.9129 23.1006 27.8579 22.9769 27.7479 22.8761C27.6472 22.7662 27.5235 22.7112 27.3769 22.7112H22.594C22.4474 22.7112 22.3191 22.7662 22.2092 22.8761C22.1084 22.9769 22.058 23.1006 22.058 23.2472V25.0064ZM31.8416 29.5557C31.5392 29.5557 31.2598 29.4824 31.0032 29.3358C30.7558 29.18 30.5542 28.9784 30.3985 28.731C30.2519 28.4745 30.1786 28.195 30.1786 27.8927V23.2472C30.1786 22.9449 30.2519 22.67 30.3985 22.4226C30.5542 22.166 30.7558 21.9645 31.0032 21.8179C31.2598 21.6621 31.5392 21.5842 31.8416 21.5842H38.2737V22.7112H31.8416C31.695 22.7112 31.5667 22.7662 31.4567 22.8761C31.356 22.9769 31.3056 23.1006 31.3056 23.2472V27.8927C31.3056 28.0393 31.356 28.1675 31.4567 28.2775C31.5667 28.3783 31.695 28.4287 31.8416 28.4287H38.3012V29.5557H31.8416Z" fill="white"/>
<path d="M35.3599 22.6455L35.7109 24.7764L37.8418 25.1274L35.7109 25.4784L35.3599 27.6094L35.0089 25.4784L32.8779 25.1274L35.0089 24.7764L35.3599 22.6455Z" fill="white"/>
</svg>
