<svg width="36" height="36" viewBox="0 0 36 36" fill="none" xmlns="http://www.w3.org/2000/svg">
<g id="pc_Kakaotalk">
<path id="Vector" d="M14.1923 13.959L13.1543 16.8855H15.2288L14.1923 13.959Z" fill="white"/>
<path id="Vector_2" d="M18 1.5C8.0595 1.5 0 7.812 0 15.5985C0 20.6325 3.369 25.05 8.4375 27.543C6.489 34.218 6.438 34.248 6.768 34.4415C7.182 34.683 7.719 34.434 14.8035 29.475C15.8415 29.6205 16.9095 29.697 18 29.697C27.9405 29.697 36 23.385 36 15.5985C36 7.812 27.9405 1.5 18 1.5ZM9.087 19.5345C9.087 20.0775 8.6205 20.52 8.049 20.52C7.4775 20.52 7.011 20.0775 7.011 19.5345V13.4055H5.391C4.8285 13.4055 4.3725 12.9525 4.3725 12.396C4.3725 11.8395 4.827 11.385 5.3895 11.385H10.707C11.2695 11.385 11.7255 11.838 11.7255 12.3945C11.7255 12.951 11.268 13.4055 10.707 13.4055H9.087V19.5345ZM17.814 20.364C17.607 20.4585 17.382 20.5065 17.154 20.5065C16.7205 20.5065 16.389 20.3325 16.29 20.0505L15.7755 18.714H12.609L12.0945 20.052C11.9955 20.3325 11.664 20.5065 11.2305 20.5065C11.0025 20.5065 10.7775 20.4585 10.5705 20.364C10.284 20.2335 10.0095 19.872 10.3245 18.8985L12.8085 12.4035C12.984 11.91 13.515 11.4015 14.1915 11.3865C14.8695 11.4015 15.402 11.91 15.576 12.405L18.0585 18.897C18.375 19.872 18.1005 20.2335 17.814 20.364ZM23.0625 20.3685H19.731C19.182 20.3685 18.7365 19.944 18.7365 19.4235V12.417C18.7365 11.8485 19.212 11.385 19.797 11.385C20.382 11.385 20.8575 11.847 20.8575 12.417V18.477H23.064C23.613 18.477 24.0585 18.9015 24.0585 19.422C24.057 19.944 23.6115 20.3685 23.0625 20.3685ZM31.191 19.5915C31.1535 19.863 31.008 20.1075 30.7875 20.2725C30.6075 20.4075 30.3885 20.481 30.1635 20.481C29.8365 20.4825 29.529 20.331 29.334 20.0715L26.898 16.866L26.538 17.2245V19.4745C26.538 20.0445 26.073 20.5065 25.4985 20.5065C24.9255 20.5065 24.4605 20.0445 24.4605 19.4745V12.417C24.4605 11.8485 24.9255 11.385 25.4985 11.385C26.0715 11.385 26.5365 11.847 26.5365 12.417V14.634L29.4345 11.7555C29.583 11.607 29.7885 11.526 30.0105 11.526C30.27 11.526 30.5295 11.637 30.7245 11.8305C30.906 12.0105 31.0155 12.243 31.0305 12.4845C31.0455 12.7275 30.9645 12.951 30.801 13.113L28.434 15.4635L30.99 18.828C31.1595 19.0455 31.2315 19.3215 31.191 19.5915Z" fill="white"/>
</g>
</svg>
