<svg width="1920" height="1080" viewBox="0 0 1920 1080" fill="none" xmlns="http://www.w3.org/2000/svg">
<g clip-path="url(#clip0_2373_11643)">
<rect width="1920" height="1080" fill="#02040F"/>
<g opacity="0.6">
<path d="M266.5 202L266.747 205.253L270 205.5L266.747 205.747L266.5 209L266.253 205.747L263 205.5L266.253 205.253L266.5 202Z" fill="white"/>
<path d="M45 243L45.2828 246.717L49 247L45.2828 247.283L45 251L44.7172 247.283L41 247L44.7172 246.717L45 243Z" fill="white"/>
<path d="M92.5 116L92.7475 119.253L96 119.5L92.7475 119.747L92.5 123L92.2525 119.747L89 119.5L92.2525 119.253L92.5 116Z" fill="white"/>
<path d="M224.5 103L224.889 108.111L230 108.5L224.889 108.889L224.5 114L224.111 108.889L219 108.5L224.111 108.111L224.5 103Z" fill="white"/>
<path d="M150.5 42L150.889 47.1111L156 47.5L150.889 47.8889L150.5 53L150.111 47.8889L145 47.5L150.111 47.1111L150.5 42Z" fill="white"/>
<path d="M141 209L141.424 214.576L147 215L141.424 215.424L141 221L140.576 215.424L135 215L140.576 214.576L141 209Z" fill="white"/>
<path d="M373.5 192L373.96 198.04L380 198.5L373.96 198.96L373.5 205L373.04 198.96L367 198.5L373.04 198.04L373.5 192Z" fill="white"/>
<path d="M41 53L41.2828 56.7172L45 57L41.2828 57.2828L41 61L40.7172 57.2828L37 57L40.7172 56.7172L41 53Z" fill="white"/>
<path d="M353.5 251L353.818 255.182L358 255.5L353.818 255.818L353.5 260L353.182 255.818L349 255.5L353.182 255.182L353.5 251Z" fill="white"/>
<path d="M284.5 54L284.818 58.1818L289 58.5L284.818 58.8182L284.5 63L284.182 58.8182L280 58.5L284.182 58.1818L284.5 54Z" fill="white"/>
<path d="M332.5 146L332.818 150.182L337 150.5L332.818 150.818L332.5 155L332.182 150.818L328 150.5L332.182 150.182L332.5 146Z" fill="white"/>
<path d="M535.5 202L535.747 205.253L539 205.5L535.747 205.747L535.5 209L535.253 205.747L532 205.5L535.253 205.253L535.5 202Z" fill="white"/>
<path d="M314 243L314.283 246.717L318 247L314.283 247.283L314 251L313.717 247.283L310 247L313.717 246.717L314 243Z" fill="white"/>
<path d="M361.5 116L361.747 119.253L365 119.5L361.747 119.747L361.5 123L361.253 119.747L358 119.5L361.253 119.253L361.5 116Z" fill="white"/>
<path d="M493.5 103L493.889 108.111L499 108.5L493.889 108.889L493.5 114L493.111 108.889L488 108.5L493.111 108.111L493.5 103Z" fill="white"/>
<path d="M419.5 42L419.889 47.1111L425 47.5L419.889 47.8889L419.5 53L419.111 47.8889L414 47.5L419.111 47.1111L419.5 42Z" fill="white"/>
<path d="M410 209L410.424 214.576L416 215L410.424 215.424L410 221L409.576 215.424L404 215L409.576 214.576L410 209Z" fill="white"/>
<path d="M642.5 192L642.96 198.04L649 198.5L642.96 198.96L642.5 205L642.04 198.96L636 198.5L642.04 198.04L642.5 192Z" fill="white"/>
<path d="M310 53L310.283 56.7172L314 57L310.283 57.2828L310 61L309.717 57.2828L306 57L309.717 56.7172L310 53Z" fill="white"/>
<path d="M622.5 251L622.818 255.182L627 255.5L622.818 255.818L622.5 260L622.182 255.818L618 255.5L622.182 255.182L622.5 251Z" fill="white"/>
<path d="M553.5 54L553.818 58.1818L558 58.5L553.818 58.8182L553.5 63L553.182 58.8182L549 58.5L553.182 58.1818L553.5 54Z" fill="white"/>
<path d="M601.5 146L601.818 150.182L606 150.5L601.818 150.818L601.5 155L601.182 150.818L597 150.5L601.182 150.182L601.5 146Z" fill="white"/>
<path d="M866.5 202L866.747 205.253L870 205.5L866.747 205.747L866.5 209L866.253 205.747L863 205.5L866.253 205.253L866.5 202Z" fill="white"/>
<path d="M645 243L645.283 246.717L649 247L645.283 247.283L645 251L644.717 247.283L641 247L644.717 246.717L645 243Z" fill="white"/>
<path d="M692.5 116L692.747 119.253L696 119.5L692.747 119.747L692.5 123L692.253 119.747L689 119.5L692.253 119.253L692.5 116Z" fill="white"/>
<path d="M824.5 103L824.889 108.111L830 108.5L824.889 108.889L824.5 114L824.111 108.889L819 108.5L824.111 108.111L824.5 103Z" fill="white"/>
<path d="M750.5 42L750.889 47.1111L756 47.5L750.889 47.8889L750.5 53L750.111 47.8889L745 47.5L750.111 47.1111L750.5 42Z" fill="white"/>
<path d="M741 209L741.424 214.576L747 215L741.424 215.424L741 221L740.576 215.424L735 215L740.576 214.576L741 209Z" fill="white"/>
<path d="M973.5 192L973.96 198.04L980 198.5L973.96 198.96L973.5 205L973.04 198.96L967 198.5L973.04 198.04L973.5 192Z" fill="white"/>
<path d="M641 53L641.283 56.7172L645 57L641.283 57.2828L641 61L640.717 57.2828L637 57L640.717 56.7172L641 53Z" fill="white"/>
<path d="M953.5 251L953.818 255.182L958 255.5L953.818 255.818L953.5 260L953.182 255.818L949 255.5L953.182 255.182L953.5 251Z" fill="white"/>
<path d="M884.5 54L884.818 58.1818L889 58.5L884.818 58.8182L884.5 63L884.182 58.8182L880 58.5L884.182 58.1818L884.5 54Z" fill="white"/>
<path d="M932.5 146L932.818 150.182L937 150.5L932.818 150.818L932.5 155L932.182 150.818L928 150.5L932.182 150.182L932.5 146Z" fill="white"/>
<path d="M1186.5 202L1186.75 205.253L1190 205.5L1186.75 205.747L1186.5 209L1186.25 205.747L1183 205.5L1186.25 205.253L1186.5 202Z" fill="white"/>
<path d="M965 243L965.283 246.717L969 247L965.283 247.283L965 251L964.717 247.283L961 247L964.717 246.717L965 243Z" fill="white"/>
<path d="M1012.5 116L1012.75 119.253L1016 119.5L1012.75 119.747L1012.5 123L1012.25 119.747L1009 119.5L1012.25 119.253L1012.5 116Z" fill="white"/>
<path d="M1144.5 103L1144.89 108.111L1150 108.5L1144.89 108.889L1144.5 114L1144.11 108.889L1139 108.5L1144.11 108.111L1144.5 103Z" fill="white"/>
<path d="M1070.5 42L1070.89 47.1111L1076 47.5L1070.89 47.8889L1070.5 53L1070.11 47.8889L1065 47.5L1070.11 47.1111L1070.5 42Z" fill="white"/>
<path d="M1061 209L1061.42 214.576L1067 215L1061.42 215.424L1061 221L1060.58 215.424L1055 215L1060.58 214.576L1061 209Z" fill="white"/>
<path d="M1293.5 192L1293.96 198.04L1300 198.5L1293.96 198.96L1293.5 205L1293.04 198.96L1287 198.5L1293.04 198.04L1293.5 192Z" fill="white"/>
<path d="M961 53L961.283 56.7172L965 57L961.283 57.2828L961 61L960.717 57.2828L957 57L960.717 56.7172L961 53Z" fill="white"/>
<path d="M1273.5 251L1273.82 255.182L1278 255.5L1273.82 255.818L1273.5 260L1273.18 255.818L1269 255.5L1273.18 255.182L1273.5 251Z" fill="white"/>
<path d="M1204.5 54L1204.82 58.1818L1209 58.5L1204.82 58.8182L1204.5 63L1204.18 58.8182L1200 58.5L1204.18 58.1818L1204.5 54Z" fill="white"/>
<path d="M1252.5 146L1252.82 150.182L1257 150.5L1252.82 150.818L1252.5 155L1252.18 150.818L1248 150.5L1252.18 150.182L1252.5 146Z" fill="white"/>
<path d="M1466.5 202L1466.75 205.253L1470 205.5L1466.75 205.747L1466.5 209L1466.25 205.747L1463 205.5L1466.25 205.253L1466.5 202Z" fill="white"/>
<path d="M1245 243L1245.28 246.717L1249 247L1245.28 247.283L1245 251L1244.72 247.283L1241 247L1244.72 246.717L1245 243Z" fill="white"/>
<path d="M1292.5 116L1292.75 119.253L1296 119.5L1292.75 119.747L1292.5 123L1292.25 119.747L1289 119.5L1292.25 119.253L1292.5 116Z" fill="white"/>
<path d="M1424.5 103L1424.89 108.111L1430 108.5L1424.89 108.889L1424.5 114L1424.11 108.889L1419 108.5L1424.11 108.111L1424.5 103Z" fill="white"/>
<path d="M1350.5 42L1350.89 47.1111L1356 47.5L1350.89 47.8889L1350.5 53L1350.11 47.8889L1345 47.5L1350.11 47.1111L1350.5 42Z" fill="white"/>
<path d="M1341 209L1341.42 214.576L1347 215L1341.42 215.424L1341 221L1340.58 215.424L1335 215L1340.58 214.576L1341 209Z" fill="white"/>
<path d="M1573.5 192L1573.96 198.04L1580 198.5L1573.96 198.96L1573.5 205L1573.04 198.96L1567 198.5L1573.04 198.04L1573.5 192Z" fill="white"/>
<path d="M1241 53L1241.28 56.7172L1245 57L1241.28 57.2828L1241 61L1240.72 57.2828L1237 57L1240.72 56.7172L1241 53Z" fill="white"/>
<path d="M1553.5 251L1553.82 255.182L1558 255.5L1553.82 255.818L1553.5 260L1553.18 255.818L1549 255.5L1553.18 255.182L1553.5 251Z" fill="white"/>
<path d="M1484.5 54L1484.82 58.1818L1489 58.5L1484.82 58.8182L1484.5 63L1484.18 58.8182L1480 58.5L1484.18 58.1818L1484.5 54Z" fill="white"/>
<path d="M1532.5 146L1532.82 150.182L1537 150.5L1532.82 150.818L1532.5 155L1532.18 150.818L1528 150.5L1532.18 150.182L1532.5 146Z" fill="white"/>
<path d="M1827.5 202L1827.75 205.253L1831 205.5L1827.75 205.747L1827.5 209L1827.25 205.747L1824 205.5L1827.25 205.253L1827.5 202Z" fill="white"/>
<path d="M1606 243L1606.28 246.717L1610 247L1606.28 247.283L1606 251L1605.72 247.283L1602 247L1605.72 246.717L1606 243Z" fill="white"/>
<path d="M1653.5 116L1653.75 119.253L1657 119.5L1653.75 119.747L1653.5 123L1653.25 119.747L1650 119.5L1653.25 119.253L1653.5 116Z" fill="white"/>
<path d="M1785.5 103L1785.89 108.111L1791 108.5L1785.89 108.889L1785.5 114L1785.11 108.889L1780 108.5L1785.11 108.111L1785.5 103Z" fill="white"/>
<path d="M1711.5 42L1711.89 47.1111L1717 47.5L1711.89 47.8889L1711.5 53L1711.11 47.8889L1706 47.5L1711.11 47.1111L1711.5 42Z" fill="white"/>
<path d="M1702 209L1702.42 214.576L1708 215L1702.42 215.424L1702 221L1701.58 215.424L1696 215L1701.58 214.576L1702 209Z" fill="white"/>
<path d="M1934.5 192L1934.96 198.04L1941 198.5L1934.96 198.96L1934.5 205L1934.04 198.96L1928 198.5L1934.04 198.04L1934.5 192Z" fill="white"/>
<path d="M1602 53L1602.28 56.7172L1606 57L1602.28 57.2828L1602 61L1601.72 57.2828L1598 57L1601.72 56.7172L1602 53Z" fill="white"/>
<path d="M1914.5 251L1914.82 255.182L1919 255.5L1914.82 255.818L1914.5 260L1914.18 255.818L1910 255.5L1914.18 255.182L1914.5 251Z" fill="white"/>
<path d="M1845.5 54L1845.82 58.1818L1850 58.5L1845.82 58.8182L1845.5 63L1845.18 58.8182L1841 58.5L1845.18 58.1818L1845.5 54Z" fill="white"/>
<path d="M1893.5 146L1893.82 150.182L1898 150.5L1893.82 150.818L1893.5 155L1893.18 150.818L1889 150.5L1893.18 150.182L1893.5 146Z" fill="white"/>
</g>
</g>
<defs>
<clipPath id="clip0_2373_11643">
<rect width="1920" height="1080" fill="white"/>
</clipPath>
</defs>
</svg>
