<svg width="623" height="622" viewBox="0 0 623 622" fill="none" xmlns="http://www.w3.org/2000/svg">
<g opacity="0.9">
<path d="M384.813 404.773C334.784 453.675 280.553 488.769 233.336 505.989C186.062 523.231 146.065 522.482 124.209 500.14C102.353 477.798 102.5 437.808 120.803 390.951C139.084 344.149 175.396 290.738 225.425 241.836C275.454 192.934 329.686 157.841 376.902 140.62C424.176 123.379 464.174 124.127 486.029 146.47C507.885 168.812 507.738 208.801 489.435 255.659C471.154 302.46 434.842 355.871 384.813 404.773Z" stroke="#8D84F1" stroke-width="1.2"/>
<path d="M367.509 389.715C315.272 440.775 259.041 477.821 210.375 496.455C186.041 505.772 163.626 510.474 144.564 510.043C125.505 509.612 109.838 504.052 98.9172 492.888C87.9963 481.724 82.7869 465.943 82.7827 446.886C82.7785 427.826 87.9839 405.531 97.8472 381.421C117.573 333.203 155.884 277.837 208.121 226.777C260.357 175.717 316.589 138.671 365.254 120.037C389.588 110.72 412.003 106.018 431.065 106.449C450.124 106.88 465.791 112.44 476.712 123.604C487.633 134.768 492.842 150.549 492.847 169.606C492.851 188.666 487.645 210.961 477.782 235.071C458.056 283.289 419.745 338.655 367.509 389.715Z" stroke="#8D84F1" stroke-width="1.2"/>
</g>
<g opacity="0.9" filter="url(#filter0_f_2373_11318)">
<path d="M384.809 404.767C334.779 453.671 280.547 488.765 233.33 505.987C186.056 523.231 146.059 522.483 124.205 500.142C102.35 477.801 102.498 437.812 120.803 390.954C139.085 344.153 175.399 290.741 225.429 241.838C275.459 192.935 329.691 157.841 376.908 140.618C424.181 123.375 464.178 124.123 486.033 146.464C507.888 168.805 507.739 208.794 489.435 255.651C471.153 302.452 434.839 355.864 384.809 404.767Z" stroke="#CFC0FB" stroke-width="1.2"/>
</g>
<g opacity="0.9" filter="url(#filter1_f_2373_11318)">
<path d="M367.505 389.709C315.267 440.77 259.036 477.818 210.37 496.453C186.036 505.77 163.621 510.474 144.559 510.043C125.501 509.613 109.834 504.054 98.9138 492.891C87.9934 481.727 82.7847 465.946 82.7811 446.89C82.7776 427.83 87.9838 405.535 97.8478 381.425C117.575 333.207 155.887 277.841 208.125 226.779C260.363 175.718 316.595 138.67 365.261 120.035C389.595 110.718 412.009 106.014 431.071 106.445C450.13 106.875 465.796 112.434 476.717 123.598C487.637 134.761 492.846 150.542 492.849 169.598C492.853 188.658 487.647 210.953 477.783 235.063C458.055 283.281 419.743 338.647 367.505 389.709Z" stroke="#CFC0FB" stroke-width="1.2"/>
</g>
<g opacity="0.9">
<g filter="url(#filter2_f_2373_11318)">
<ellipse cx="11.7439" cy="11.7398" rx="11.7439" ry="11.7398" transform="matrix(0.992107 0.125391 -0.125499 0.992094 430.644 93.5342)" fill="#C3B0FC"/>
</g>
<path d="M445.383 75.285L442.931 104.51L466.852 87.5296L445.611 106.61L473.372 111.364L445.301 109.061L461.122 132.826L442.183 110.428L437.279 139.344L439.731 110.118L415.81 127.099L437.051 108.019L409.29 103.265L437.361 105.567L421.54 81.8026L440.479 104.2L445.383 75.285Z" fill="#8D84F1"/>
</g>
<g opacity="0.9">
<g filter="url(#filter3_f_2373_11318)">
<ellipse cx="13.7012" cy="13.6965" rx="13.7012" ry="13.6965" transform="matrix(0.992107 0.125391 -0.125499 0.992094 224.09 490.714)" fill="#C3B0FC"/>
</g>
<path d="M241.285 469.422L238.426 503.518L266.333 483.707L241.552 505.968L273.939 511.514L241.19 508.828L259.648 536.553L237.552 510.422L231.831 544.157L234.691 510.061L206.784 529.871L231.565 507.611L199.177 502.065L231.926 504.751L213.468 477.026L235.565 503.156L241.285 469.422Z" fill="#8D84F1"/>
</g>
<g clip-path="url(#clip0_2373_11318)">
<path d="M228.122 374.759L224.597 370.559H226.187L229.727 374.744V374.759H228.122ZM219.002 374.759V363.974H228.002C228.332 363.974 228.632 364.059 228.902 364.229C229.182 364.389 229.402 364.604 229.562 364.874C229.722 365.144 229.802 365.444 229.802 365.774V368.939C229.802 369.269 229.722 369.569 229.562 369.839C229.402 370.109 229.182 370.329 228.902 370.499C228.632 370.659 228.332 370.739 228.002 370.739H220.217V374.759H219.002ZM220.802 369.509H228.002C228.162 369.509 228.297 369.454 228.407 369.344C228.527 369.234 228.587 369.099 228.587 368.939V365.774C228.587 365.614 228.527 365.479 228.407 365.369C228.297 365.249 228.162 365.189 228.002 365.189H220.802C220.642 365.189 220.502 365.249 220.382 365.369C220.272 365.479 220.217 365.614 220.217 365.774V368.939C220.217 369.099 220.272 369.234 220.382 369.344C220.502 369.454 220.642 369.509 220.802 369.509ZM233.12 374.759C232.79 374.759 232.485 374.679 232.205 374.519C231.935 374.349 231.715 374.129 231.545 373.859C231.385 373.579 231.305 373.274 231.305 372.944V367.874C231.305 367.544 231.385 367.244 231.545 366.974C231.715 366.694 231.935 366.474 232.205 366.314C232.485 366.144 232.79 366.059 233.12 366.059H238.34C238.68 366.059 238.985 366.144 239.255 366.314C239.535 366.474 239.755 366.694 239.915 366.974C240.085 367.244 240.17 367.544 240.17 367.874V371.024H232.535V372.944C232.535 373.104 232.59 373.244 232.7 373.364C232.82 373.474 232.96 373.529 233.12 373.529H240.17V374.759H233.12ZM232.535 369.794H238.925V367.874C238.925 367.714 238.865 367.579 238.745 367.469C238.635 367.349 238.5 367.289 238.34 367.289H233.12C232.96 367.289 232.82 367.349 232.7 367.469C232.59 367.579 232.535 367.714 232.535 367.874V369.794ZM243.213 374.759C242.883 374.759 242.578 374.679 242.298 374.519C242.028 374.349 241.808 374.129 241.638 373.859C241.478 373.579 241.398 373.274 241.398 372.944V367.874C241.398 367.544 241.478 367.244 241.638 366.974C241.808 366.694 242.028 366.474 242.298 366.314C242.578 366.144 242.883 366.059 243.213 366.059H250.233V367.289H243.213C243.053 367.289 242.913 367.349 242.793 367.469C242.683 367.579 242.628 367.714 242.628 367.874V372.944C242.628 373.104 242.683 373.244 242.793 373.364C242.913 373.474 243.053 373.529 243.213 373.529H250.263V374.759H243.213ZM253.643 374.759C253.313 374.759 253.008 374.679 252.728 374.519C252.458 374.349 252.238 374.129 252.068 373.859C251.908 373.579 251.828 373.274 251.828 372.944V367.874C251.828 367.544 251.908 367.244 252.068 366.974C252.238 366.694 252.458 366.474 252.728 366.314C253.008 366.144 253.313 366.059 253.643 366.059H258.863C259.203 366.059 259.508 366.144 259.778 366.314C260.058 366.474 260.278 366.694 260.438 366.974C260.608 367.244 260.693 367.544 260.693 367.874V372.944C260.693 373.274 260.608 373.579 260.438 373.859C260.278 374.129 260.058 374.349 259.778 374.519C259.508 374.679 259.203 374.759 258.863 374.759H253.643ZM253.643 373.529H258.863C259.023 373.529 259.158 373.474 259.268 373.364C259.388 373.244 259.448 373.104 259.448 372.944V367.874C259.448 367.714 259.388 367.579 259.268 367.469C259.158 367.349 259.023 367.289 258.863 367.289H253.643C253.483 367.289 253.343 367.349 253.223 367.469C253.113 367.579 253.058 367.714 253.058 367.874V372.944C253.058 373.104 253.113 373.244 253.223 373.364C253.343 373.474 253.483 373.529 253.643 373.529ZM262.082 374.759V367.874C262.082 367.544 262.162 367.244 262.322 366.974C262.492 366.694 262.712 366.474 262.982 366.314C263.262 366.144 263.567 366.059 263.897 366.059H268.787V367.289H263.897C263.737 367.289 263.597 367.349 263.477 367.469C263.367 367.579 263.312 367.714 263.312 367.874V374.759H262.082ZM271.153 374.759C270.813 374.759 270.503 374.679 270.223 374.519C269.953 374.349 269.733 374.129 269.563 373.859C269.403 373.579 269.323 373.274 269.323 372.944V367.874C269.323 367.544 269.403 367.244 269.563 366.974C269.733 366.694 269.953 366.474 270.223 366.314C270.503 366.144 270.813 366.059 271.153 366.059H276.958V363.209H278.188V374.759H271.153ZM271.153 373.529H276.373C276.533 373.529 276.668 373.474 276.778 373.364C276.898 373.244 276.958 373.104 276.958 372.944V367.874C276.958 367.714 276.898 367.579 276.778 367.469C276.668 367.349 276.533 367.289 276.373 367.289H271.153C270.993 367.289 270.853 367.349 270.733 367.469C270.623 367.579 270.568 367.714 270.568 367.874V372.944C270.568 373.104 270.623 373.244 270.733 373.364C270.853 373.474 270.993 373.529 271.153 373.529ZM285.304 378.209V376.964H290.734C290.894 376.964 291.029 376.904 291.139 376.784C291.259 376.674 291.319 376.539 291.319 376.379V374.759H285.514C285.184 374.759 284.879 374.679 284.599 374.519C284.329 374.349 284.109 374.129 283.939 373.859C283.779 373.579 283.699 373.274 283.699 372.944V366.089H284.929V372.944C284.929 373.104 284.984 373.244 285.094 373.364C285.214 373.474 285.354 373.529 285.514 373.529H290.734C290.894 373.529 291.029 373.474 291.139 373.364C291.259 373.244 291.319 373.104 291.319 372.944V366.089H292.549V376.379C292.549 376.719 292.469 377.024 292.309 377.294C292.149 377.574 291.929 377.794 291.649 377.954C291.379 378.124 291.074 378.209 290.734 378.209H285.304ZM295.566 374.759C295.236 374.759 294.931 374.679 294.651 374.519C294.381 374.349 294.161 374.129 293.991 373.859C293.831 373.579 293.751 373.274 293.751 372.944V367.874C293.751 367.544 293.831 367.244 293.991 366.974C294.161 366.694 294.381 366.474 294.651 366.314C294.931 366.144 295.236 366.059 295.566 366.059H300.786C301.126 366.059 301.431 366.144 301.701 366.314C301.981 366.474 302.201 366.694 302.361 366.974C302.531 367.244 302.616 367.544 302.616 367.874V372.944C302.616 373.274 302.531 373.579 302.361 373.859C302.201 374.129 301.981 374.349 301.701 374.519C301.431 374.679 301.126 374.759 300.786 374.759H295.566ZM295.566 373.529H300.786C300.946 373.529 301.081 373.474 301.191 373.364C301.311 373.244 301.371 373.104 301.371 372.944V367.874C301.371 367.714 301.311 367.579 301.191 367.469C301.081 367.349 300.946 367.289 300.786 367.289H295.566C295.406 367.289 295.266 367.349 295.146 367.469C295.036 367.579 294.981 367.714 294.981 367.874V372.944C294.981 373.104 295.036 373.244 295.146 373.364C295.266 373.474 295.406 373.529 295.566 373.529ZM305.631 374.759C305.301 374.759 304.996 374.679 304.716 374.519C304.446 374.349 304.226 374.129 304.056 373.859C303.896 373.579 303.816 373.274 303.816 372.944V366.059H305.046V372.944C305.046 373.104 305.101 373.244 305.211 373.364C305.331 373.474 305.471 373.529 305.631 373.529H310.851C311.011 373.529 311.151 373.474 311.271 373.364C311.391 373.244 311.451 373.104 311.451 372.944V366.059H312.681V372.944C312.681 373.274 312.596 373.579 312.426 373.859C312.266 374.129 312.046 374.349 311.766 374.519C311.496 374.679 311.191 374.759 310.851 374.759H305.631ZM314.23 374.759V367.874C314.23 367.544 314.31 367.244 314.47 366.974C314.64 366.694 314.86 366.474 315.13 366.314C315.41 366.144 315.715 366.059 316.045 366.059H320.935V367.289H316.045C315.885 367.289 315.745 367.349 315.625 367.469C315.515 367.579 315.46 367.714 315.46 367.874V374.759H314.23ZM327.793 374.759C327.463 374.759 327.158 374.679 326.878 374.519C326.608 374.349 326.388 374.129 326.218 373.859C326.058 373.579 325.978 373.274 325.978 372.944V367.874C325.978 367.544 326.058 367.244 326.218 366.974C326.388 366.694 326.608 366.474 326.878 366.314C327.158 366.144 327.463 366.059 327.793 366.059H333.013C333.353 366.059 333.658 366.144 333.928 366.314C334.208 366.474 334.428 366.694 334.588 366.974C334.758 367.244 334.843 367.544 334.843 367.874V372.944C334.843 373.274 334.758 373.579 334.588 373.859C334.428 374.129 334.208 374.349 333.928 374.519C333.658 374.679 333.353 374.759 333.013 374.759H327.793ZM327.793 373.529H333.013C333.173 373.529 333.308 373.474 333.418 373.364C333.538 373.244 333.598 373.104 333.598 372.944V367.874C333.598 367.714 333.538 367.579 333.418 367.469C333.308 367.349 333.173 367.289 333.013 367.289H327.793C327.633 367.289 327.493 367.349 327.373 367.469C327.263 367.579 327.208 367.714 327.208 367.874V372.944C327.208 373.104 327.263 373.244 327.373 373.364C327.493 373.474 327.633 373.529 327.793 373.529ZM337.857 374.759C337.517 374.759 337.207 374.679 336.927 374.519C336.657 374.349 336.442 374.129 336.282 373.859C336.122 373.579 336.042 373.274 336.042 372.944V363.209H337.272V366.059H341.037V367.289H337.272V372.944C337.272 373.104 337.327 373.244 337.437 373.364C337.557 373.474 337.697 373.529 337.857 373.529H341.037V374.759H337.857ZM342.283 374.759V363.209H343.513V366.059H349.333C349.663 366.059 349.963 366.144 350.233 366.314C350.513 366.474 350.733 366.694 350.893 366.974C351.063 367.244 351.148 367.544 351.148 367.874V374.759H349.918V367.874C349.918 367.714 349.858 367.579 349.738 367.469C349.628 367.349 349.493 367.289 349.333 367.289H344.113C343.953 367.289 343.813 367.349 343.693 367.469C343.573 367.579 343.513 367.714 343.513 367.874V374.759H342.283ZM354.072 374.759C353.742 374.759 353.437 374.679 353.157 374.519C352.887 374.349 352.667 374.129 352.497 373.859C352.337 373.579 352.257 373.274 352.257 372.944V367.874C352.257 367.544 352.337 367.244 352.497 366.974C352.667 366.694 352.887 366.474 353.157 366.314C353.437 366.144 353.742 366.059 354.072 366.059H359.292C359.632 366.059 359.937 366.144 360.207 366.314C360.487 366.474 360.707 366.694 360.867 366.974C361.037 367.244 361.122 367.544 361.122 367.874V371.024H353.487V372.944C353.487 373.104 353.542 373.244 353.652 373.364C353.772 373.474 353.912 373.529 354.072 373.529H361.122V374.759H354.072ZM353.487 369.794H359.877V367.874C359.877 367.714 359.817 367.579 359.697 367.469C359.587 367.349 359.452 367.289 359.292 367.289H354.072C353.912 367.289 353.772 367.349 353.652 367.469C353.542 367.579 353.487 367.714 353.487 367.874V369.794ZM362.585 374.759V367.874C362.585 367.544 362.665 367.244 362.825 366.974C362.995 366.694 363.215 366.474 363.485 366.314C363.765 366.144 364.07 366.059 364.4 366.059H369.29V367.289H364.4C364.24 367.289 364.1 367.349 363.98 367.469C363.87 367.579 363.815 367.714 363.815 367.874V374.759H362.585ZM377.512 374.759L374.092 366.059H375.412L378.052 372.539L380.857 366.059H382.477L385.462 372.524L387.922 366.059H389.257L385.972 374.759H384.907L381.667 367.574L378.592 374.759H377.512ZM391.924 374.759C391.594 374.759 391.289 374.679 391.009 374.519C390.739 374.349 390.519 374.129 390.349 373.859C390.189 373.579 390.109 373.274 390.109 372.944V367.874C390.109 367.544 390.189 367.244 390.349 366.974C390.519 366.694 390.739 366.474 391.009 366.314C391.289 366.144 391.594 366.059 391.924 366.059H397.144C397.484 366.059 397.789 366.144 398.059 366.314C398.339 366.474 398.559 366.694 398.719 366.974C398.889 367.244 398.974 367.544 398.974 367.874V372.944C398.974 373.274 398.889 373.579 398.719 373.859C398.559 374.129 398.339 374.349 398.059 374.519C397.789 374.679 397.484 374.759 397.144 374.759H391.924ZM391.924 373.529H397.144C397.304 373.529 397.439 373.474 397.549 373.364C397.669 373.244 397.729 373.104 397.729 372.944V367.874C397.729 367.714 397.669 367.579 397.549 367.469C397.439 367.349 397.304 367.289 397.144 367.289H391.924C391.764 367.289 391.624 367.349 391.504 367.469C391.394 367.579 391.339 367.714 391.339 367.874V372.944C391.339 373.104 391.394 373.244 391.504 373.364C391.624 373.474 391.764 373.529 391.924 373.529ZM400.363 374.759V367.874C400.363 367.544 400.443 367.244 400.603 366.974C400.773 366.694 400.993 366.474 401.263 366.314C401.543 366.144 401.848 366.059 402.178 366.059H407.068V367.289H402.178C402.018 367.289 401.878 367.349 401.758 367.469C401.648 367.579 401.593 367.714 401.593 367.874V374.759H400.363ZM409.854 374.759C409.524 374.759 409.219 374.679 408.939 374.519C408.669 374.349 408.449 374.129 408.279 373.859C408.119 373.579 408.039 373.274 408.039 372.944V363.209H409.269V372.944C409.269 373.104 409.324 373.244 409.434 373.364C409.554 373.474 409.694 373.529 409.854 373.529H411.324V374.759H409.854ZM414.033 374.759C413.693 374.759 413.383 374.679 413.103 374.519C412.833 374.349 412.613 374.129 412.443 373.859C412.283 373.579 412.203 373.274 412.203 372.944V367.874C412.203 367.544 412.283 367.244 412.443 366.974C412.613 366.694 412.833 366.474 413.103 366.314C413.383 366.144 413.693 366.059 414.033 366.059H419.838V363.209H421.068V374.759H414.033ZM414.033 373.529H419.253C419.413 373.529 419.548 373.474 419.658 373.364C419.778 373.244 419.838 373.104 419.838 372.944V367.874C419.838 367.714 419.778 367.579 419.658 367.469C419.548 367.349 419.413 367.289 419.253 367.289H414.033C413.873 367.289 413.733 367.349 413.613 367.469C413.503 367.579 413.448 367.714 413.448 367.874V372.944C413.448 373.104 413.503 373.244 413.613 373.364C413.733 373.474 413.873 373.529 414.033 373.529ZM424.398 374.759C424.068 374.759 423.763 374.679 423.483 374.519C423.213 374.349 422.993 374.129 422.823 373.859C422.663 373.579 422.583 373.274 422.583 372.944V372.824H423.813V372.944C423.813 373.104 423.868 373.244 423.978 373.364C424.098 373.474 424.238 373.529 424.398 373.529H429.618C429.778 373.529 429.913 373.474 430.023 373.364C430.143 373.244 430.203 373.104 430.203 372.944V371.609C430.203 371.449 430.143 371.314 430.023 371.204C429.913 371.084 429.778 371.024 429.618 371.024H424.398C424.068 371.024 423.763 370.944 423.483 370.784C423.213 370.614 422.993 370.394 422.823 370.124C422.663 369.844 422.583 369.539 422.583 369.209V367.874C422.583 367.544 422.663 367.244 422.823 366.974C422.993 366.694 423.213 366.474 423.483 366.314C423.763 366.144 424.068 366.059 424.398 366.059H429.618C429.958 366.059 430.263 366.144 430.533 366.314C430.813 366.474 431.033 366.694 431.193 366.974C431.363 367.244 431.448 367.544 431.448 367.874V367.994H430.203V367.874C430.203 367.714 430.143 367.579 430.023 367.469C429.913 367.349 429.778 367.289 429.618 367.289H424.398C424.238 367.289 424.098 367.349 423.978 367.469C423.868 367.579 423.813 367.714 423.813 367.874V369.209C423.813 369.369 423.868 369.509 423.978 369.629C424.098 369.739 424.238 369.794 424.398 369.794H429.618C429.958 369.794 430.263 369.879 430.533 370.049C430.813 370.209 431.033 370.429 431.193 370.709C431.363 370.979 431.448 371.279 431.448 371.609V372.944C431.448 373.274 431.363 373.579 431.193 373.859C431.033 374.129 430.813 374.349 430.533 374.519C430.263 374.679 429.958 374.759 429.618 374.759H424.398ZM438.843 374.759C438.503 374.759 438.193 374.679 437.913 374.519C437.643 374.349 437.428 374.129 437.268 373.859C437.108 373.579 437.028 373.274 437.028 372.944V363.209H438.258V366.059H442.023V367.289H438.258V372.944C438.258 373.104 438.313 373.244 438.423 373.364C438.543 373.474 438.683 373.529 438.843 373.529H442.023V374.759H438.843ZM443.269 374.759V363.209H444.499V366.059H450.319C450.649 366.059 450.949 366.144 451.219 366.314C451.499 366.474 451.719 366.694 451.879 366.974C452.049 367.244 452.134 367.544 452.134 367.874V374.759H450.904V367.874C450.904 367.714 450.844 367.579 450.724 367.469C450.614 367.349 450.479 367.289 450.319 367.289H445.099C444.939 367.289 444.799 367.349 444.679 367.469C444.559 367.579 444.499 367.714 444.499 367.874V374.759H443.269ZM453.259 374.759V367.874C453.259 367.544 453.339 367.244 453.499 366.974C453.669 366.694 453.889 366.474 454.159 366.314C454.439 366.144 454.744 366.059 455.074 366.059H459.964V367.289H455.074C454.914 367.289 454.774 367.349 454.654 367.469C454.544 367.579 454.489 367.714 454.489 367.874V374.759H453.259ZM462.661 374.759C462.331 374.759 462.026 374.679 461.746 374.519C461.476 374.349 461.256 374.129 461.086 373.859C460.926 373.579 460.846 373.274 460.846 372.944V367.874C460.846 367.544 460.926 367.244 461.086 366.974C461.256 366.694 461.476 366.474 461.746 366.314C462.026 366.144 462.331 366.059 462.661 366.059H467.881C468.221 366.059 468.526 366.144 468.796 366.314C469.076 366.474 469.296 366.694 469.456 366.974C469.626 367.244 469.711 367.544 469.711 367.874V372.944C469.711 373.274 469.626 373.579 469.456 373.859C469.296 374.129 469.076 374.349 468.796 374.519C468.526 374.679 468.221 374.759 467.881 374.759H462.661ZM462.661 373.529H467.881C468.041 373.529 468.176 373.474 468.286 373.364C468.406 373.244 468.466 373.104 468.466 372.944V367.874C468.466 367.714 468.406 367.579 468.286 367.469C468.176 367.349 468.041 367.289 467.881 367.289H462.661C462.501 367.289 462.361 367.349 462.241 367.469C462.131 367.579 462.076 367.714 462.076 367.874V372.944C462.076 373.104 462.131 373.244 462.241 373.364C462.361 373.474 462.501 373.529 462.661 373.529ZM472.725 374.759C472.395 374.759 472.09 374.679 471.81 374.519C471.54 374.349 471.32 374.129 471.15 373.859C470.99 373.579 470.91 373.274 470.91 372.944V366.059H472.14V372.944C472.14 373.104 472.195 373.244 472.305 373.364C472.425 373.474 472.565 373.529 472.725 373.529H477.945C478.105 373.529 478.245 373.474 478.365 373.364C478.485 373.244 478.545 373.104 478.545 372.944V366.059H479.775V372.944C479.775 373.274 479.69 373.579 479.52 373.859C479.36 374.129 479.14 374.349 478.86 374.519C478.59 374.679 478.285 374.759 477.945 374.759H472.725ZM482.765 378.194V376.949H488.195C488.355 376.949 488.49 376.889 488.6 376.769C488.72 376.659 488.78 376.524 488.78 376.364V374.759H482.975C482.645 374.759 482.34 374.679 482.06 374.519C481.79 374.349 481.57 374.129 481.4 373.859C481.24 373.579 481.16 373.274 481.16 372.944V367.874C481.16 367.544 481.24 367.244 481.4 366.974C481.57 366.694 481.79 366.474 482.06 366.314C482.34 366.144 482.645 366.059 482.975 366.059H488.195C488.535 366.059 488.84 366.144 489.11 366.314C489.39 366.474 489.61 366.694 489.77 366.974C489.93 367.244 490.01 367.544 490.01 367.874V376.364C490.01 376.704 489.93 377.009 489.77 377.279C489.61 377.559 489.39 377.779 489.11 377.939C488.84 378.109 488.535 378.194 488.195 378.194H482.765ZM482.975 373.529H488.195C488.355 373.529 488.49 373.474 488.6 373.364C488.72 373.244 488.78 373.104 488.78 372.944V367.874C488.78 367.714 488.72 367.579 488.6 367.469C488.49 367.349 488.355 367.289 488.195 367.289H482.975C482.815 367.289 482.675 367.349 482.555 367.469C482.445 367.579 482.39 367.714 482.39 367.874V372.944C482.39 373.104 482.445 373.244 482.555 373.364C482.675 373.474 482.815 373.529 482.975 373.529ZM491.594 374.759V363.209H492.824V366.059H498.644C498.974 366.059 499.274 366.144 499.544 366.314C499.824 366.474 500.044 366.694 500.204 366.974C500.374 367.244 500.459 367.544 500.459 367.874V374.759H499.229V367.874C499.229 367.714 499.169 367.579 499.049 367.469C498.939 367.349 498.804 367.289 498.644 367.289H493.424C493.264 367.289 493.124 367.349 493.004 367.469C492.884 367.579 492.824 367.714 492.824 367.874V374.759H491.594ZM507.126 378.209V376.964H512.556C512.716 376.964 512.851 376.904 512.961 376.784C513.081 376.674 513.141 376.539 513.141 376.379V374.759H507.336C507.006 374.759 506.701 374.679 506.421 374.519C506.151 374.349 505.931 374.129 505.761 373.859C505.601 373.579 505.521 373.274 505.521 372.944V366.089H506.751V372.944C506.751 373.104 506.806 373.244 506.916 373.364C507.036 373.474 507.176 373.529 507.336 373.529H512.556C512.716 373.529 512.851 373.474 512.961 373.364C513.081 373.244 513.141 373.104 513.141 372.944V366.089H514.371V376.379C514.371 376.719 514.291 377.024 514.131 377.294C513.971 377.574 513.751 377.794 513.471 377.954C513.201 378.124 512.896 378.209 512.556 378.209H507.126ZM517.388 374.759C517.058 374.759 516.753 374.679 516.473 374.519C516.203 374.349 515.983 374.129 515.813 373.859C515.653 373.579 515.573 373.274 515.573 372.944V367.874C515.573 367.544 515.653 367.244 515.813 366.974C515.983 366.694 516.203 366.474 516.473 366.314C516.753 366.144 517.058 366.059 517.388 366.059H522.608C522.948 366.059 523.253 366.144 523.523 366.314C523.803 366.474 524.023 366.694 524.183 366.974C524.353 367.244 524.438 367.544 524.438 367.874V372.944C524.438 373.274 524.353 373.579 524.183 373.859C524.023 374.129 523.803 374.349 523.523 374.519C523.253 374.679 522.948 374.759 522.608 374.759H517.388ZM517.388 373.529H522.608C522.768 373.529 522.903 373.474 523.013 373.364C523.133 373.244 523.193 373.104 523.193 372.944V367.874C523.193 367.714 523.133 367.579 523.013 367.469C522.903 367.349 522.768 367.289 522.608 367.289H517.388C517.228 367.289 517.088 367.349 516.968 367.469C516.858 367.579 516.803 367.714 516.803 367.874V372.944C516.803 373.104 516.858 373.244 516.968 373.364C517.088 373.474 517.228 373.529 517.388 373.529ZM527.452 374.759C527.122 374.759 526.817 374.679 526.537 374.519C526.267 374.349 526.047 374.129 525.877 373.859C525.717 373.579 525.637 373.274 525.637 372.944V366.059H526.867V372.944C526.867 373.104 526.922 373.244 527.032 373.364C527.152 373.474 527.292 373.529 527.452 373.529H532.672C532.832 373.529 532.972 373.474 533.092 373.364C533.212 373.244 533.272 373.104 533.272 372.944V366.059H534.502V372.944C534.502 373.274 534.417 373.579 534.247 373.859C534.087 374.129 533.867 374.349 533.587 374.519C533.317 374.679 533.012 374.759 532.672 374.759H527.452ZM536.051 374.759V367.874C536.051 367.544 536.131 367.244 536.291 366.974C536.461 366.694 536.681 366.474 536.951 366.314C537.231 366.144 537.536 366.059 537.866 366.059H542.756V367.289H537.866C537.706 367.289 537.566 367.349 537.446 367.469C537.336 367.579 537.281 367.714 537.281 367.874V374.759H536.051ZM549.209 374.759C548.869 374.759 548.559 374.679 548.279 374.519C548.009 374.349 547.789 374.129 547.619 373.859C547.459 373.579 547.379 373.274 547.379 372.944V367.874C547.379 367.544 547.459 367.244 547.619 366.974C547.789 366.694 548.009 366.474 548.279 366.314C548.559 366.144 548.869 366.059 549.209 366.059H555.014V363.209H556.244V374.759H549.209ZM549.209 373.529H554.429C554.589 373.529 554.724 373.474 554.834 373.364C554.954 373.244 555.014 373.104 555.014 372.944V367.874C555.014 367.714 554.954 367.579 554.834 367.469C554.724 367.349 554.589 367.289 554.429 367.289H549.209C549.049 367.289 548.909 367.349 548.789 367.469C548.679 367.579 548.624 367.714 548.624 367.874V372.944C548.624 373.104 548.679 373.244 548.789 373.364C548.909 373.474 549.049 373.529 549.209 373.529ZM557.819 374.759V367.874C557.819 367.544 557.899 367.244 558.059 366.974C558.229 366.694 558.449 366.474 558.719 366.314C558.999 366.144 559.304 366.059 559.634 366.059H564.524V367.289H559.634C559.474 367.289 559.334 367.349 559.214 367.469C559.104 367.579 559.049 367.714 559.049 367.874V374.759H557.819ZM567.295 374.759C566.965 374.759 566.66 374.679 566.38 374.519C566.11 374.349 565.89 374.129 565.72 373.859C565.56 373.579 565.48 373.274 565.48 372.944V367.874C565.48 367.544 565.56 367.244 565.72 366.974C565.89 366.694 566.11 366.474 566.38 366.314C566.66 366.144 566.965 366.059 567.295 366.059H572.515C572.855 366.059 573.16 366.144 573.43 366.314C573.71 366.474 573.93 366.694 574.09 366.974C574.26 367.244 574.345 367.544 574.345 367.874V371.024H566.71V372.944C566.71 373.104 566.765 373.244 566.875 373.364C566.995 373.474 567.135 373.529 567.295 373.529H574.345V374.759H567.295ZM566.71 369.794H573.1V367.874C573.1 367.714 573.04 367.579 572.92 367.469C572.81 367.349 572.675 367.289 572.515 367.289H567.295C567.135 367.289 566.995 367.349 566.875 367.469C566.765 367.579 566.71 367.714 566.71 367.874V369.794ZM577.696 374.759C577.366 374.759 577.061 374.679 576.781 374.519C576.511 374.349 576.291 374.129 576.121 373.859C575.961 373.579 575.881 373.274 575.881 372.944V369.794H583.501V367.874C583.501 367.714 583.441 367.579 583.321 367.469C583.211 367.349 583.076 367.289 582.916 367.289H575.881V366.059H582.916C583.256 366.059 583.561 366.144 583.831 366.314C584.111 366.474 584.331 366.694 584.491 366.974C584.661 367.244 584.746 367.544 584.746 367.874V374.759H577.696ZM577.696 373.529H583.501V371.024H577.111V372.944C577.111 373.104 577.166 373.244 577.276 373.364C577.396 373.474 577.536 373.529 577.696 373.529ZM586.033 374.759V366.059H597.523C597.863 366.059 598.168 366.144 598.438 366.314C598.718 366.474 598.938 366.694 599.098 366.974C599.258 367.244 599.338 367.544 599.338 367.874V374.759H598.123V367.874C598.123 367.714 598.063 367.579 597.943 367.469C597.823 367.349 597.683 367.289 597.523 367.289H593.908C593.748 367.289 593.608 367.349 593.488 367.469C593.378 367.579 593.323 367.714 593.323 367.874V374.759H592.078V367.874C592.078 367.714 592.018 367.579 591.898 367.469C591.788 367.349 591.653 367.289 591.493 367.289H587.863C587.703 367.289 587.563 367.349 587.443 367.469C587.333 367.579 587.278 367.714 587.278 367.874V374.759H586.033ZM602.421 374.759C602.091 374.759 601.786 374.679 601.506 374.519C601.236 374.349 601.016 374.129 600.846 373.859C600.686 373.579 600.606 373.274 600.606 372.944V372.824H601.836V372.944C601.836 373.104 601.891 373.244 602.001 373.364C602.121 373.474 602.261 373.529 602.421 373.529H607.641C607.801 373.529 607.936 373.474 608.046 373.364C608.166 373.244 608.226 373.104 608.226 372.944V371.609C608.226 371.449 608.166 371.314 608.046 371.204C607.936 371.084 607.801 371.024 607.641 371.024H602.421C602.091 371.024 601.786 370.944 601.506 370.784C601.236 370.614 601.016 370.394 600.846 370.124C600.686 369.844 600.606 369.539 600.606 369.209V367.874C600.606 367.544 600.686 367.244 600.846 366.974C601.016 366.694 601.236 366.474 601.506 366.314C601.786 366.144 602.091 366.059 602.421 366.059H607.641C607.981 366.059 608.286 366.144 608.556 366.314C608.836 366.474 609.056 366.694 609.216 366.974C609.386 367.244 609.471 367.544 609.471 367.874V367.994H608.226V367.874C608.226 367.714 608.166 367.579 608.046 367.469C607.936 367.349 607.801 367.289 607.641 367.289H602.421C602.261 367.289 602.121 367.349 602.001 367.469C601.891 367.579 601.836 367.714 601.836 367.874V369.209C601.836 369.369 601.891 369.509 602.001 369.629C602.121 369.739 602.261 369.794 602.421 369.794H607.641C607.981 369.794 608.286 369.879 608.556 370.049C608.836 370.209 609.056 370.429 609.216 370.709C609.386 370.979 609.471 371.279 609.471 371.609V372.944C609.471 373.274 609.386 373.579 609.216 373.859C609.056 374.129 608.836 374.349 608.556 374.519C608.286 374.679 607.981 374.759 607.641 374.759H602.421Z" fill="white"/>
<path d="M314.084 343.759L305.849 333.947H309.563L317.833 343.724V343.759H314.084ZM292.778 343.759V318.564H313.803C314.574 318.564 315.275 318.762 315.906 319.159C316.56 319.533 317.074 320.035 317.448 320.666C317.822 321.297 318.008 321.998 318.008 322.769V330.163C318.008 330.934 317.822 331.635 317.448 332.265C317.074 332.896 316.56 333.41 315.906 333.807C315.275 334.181 314.574 334.368 313.803 334.368H295.616V343.759H292.778ZM296.983 331.494H313.803C314.177 331.494 314.493 331.366 314.749 331.109C315.03 330.852 315.17 330.537 315.17 330.163V322.769C315.17 322.395 315.03 322.08 314.749 321.823C314.493 321.542 314.177 321.402 313.803 321.402H296.983C296.609 321.402 296.282 321.542 296.002 321.823C295.745 322.08 295.616 322.395 295.616 322.769V330.163C295.616 330.537 295.745 330.852 296.002 331.109C296.282 331.366 296.609 331.494 296.983 331.494ZM325.76 343.759C324.989 343.759 324.276 343.572 323.622 343.199C322.991 342.801 322.477 342.287 322.08 341.657C321.706 341.003 321.52 340.29 321.52 339.519V327.675C321.52 326.904 321.706 326.203 322.08 325.572C322.477 324.918 322.991 324.404 323.622 324.03C324.276 323.633 324.989 323.435 325.76 323.435H337.954C338.749 323.435 339.461 323.633 340.092 324.03C340.746 324.404 341.26 324.918 341.634 325.572C342.031 326.203 342.23 326.904 342.23 327.675V335.034H324.393V339.519C324.393 339.893 324.522 340.22 324.778 340.5C325.059 340.757 325.386 340.886 325.76 340.886H342.23V343.759H325.76ZM324.393 332.16H339.321V327.675C339.321 327.301 339.181 326.986 338.901 326.729C338.644 326.448 338.328 326.308 337.954 326.308H325.76C325.386 326.308 325.059 326.448 324.778 326.729C324.522 326.986 324.393 327.301 324.393 327.675V332.16ZM349.338 343.759C348.567 343.759 347.855 343.572 347.201 343.199C346.57 342.801 346.056 342.287 345.659 341.657C345.285 341.003 345.098 340.29 345.098 339.519V327.675C345.098 326.904 345.285 326.203 345.659 325.572C346.056 324.918 346.57 324.404 347.201 324.03C347.855 323.633 348.567 323.435 349.338 323.435H365.738V326.308H349.338C348.964 326.308 348.637 326.448 348.357 326.729C348.1 326.986 347.971 327.301 347.971 327.675V339.519C347.971 339.893 348.1 340.22 348.357 340.5C348.637 340.757 348.964 340.886 349.338 340.886H365.808V343.759H349.338ZM373.704 343.759C372.933 343.759 372.22 343.572 371.566 343.199C370.935 342.801 370.421 342.287 370.024 341.657C369.65 341.003 369.463 340.29 369.463 339.519V327.675C369.463 326.904 369.65 326.203 370.024 325.572C370.421 324.918 370.935 324.404 371.566 324.03C372.22 323.633 372.933 323.435 373.704 323.435H385.898C386.693 323.435 387.405 323.633 388.036 324.03C388.69 324.404 389.204 324.918 389.578 325.572C389.975 326.203 390.174 326.904 390.174 327.675V339.519C390.174 340.29 389.975 341.003 389.578 341.657C389.204 342.287 388.69 342.801 388.036 343.199C387.405 343.572 386.693 343.759 385.898 343.759H373.704ZM373.704 340.886H385.898C386.272 340.886 386.588 340.757 386.845 340.5C387.125 340.22 387.265 339.893 387.265 339.519V327.675C387.265 327.301 387.125 326.986 386.845 326.729C386.588 326.448 386.272 326.308 385.898 326.308H373.704C373.33 326.308 373.003 326.448 372.722 326.729C372.465 326.986 372.337 327.301 372.337 327.675V339.519C372.337 339.893 372.465 340.22 372.722 340.5C373.003 340.757 373.33 340.886 373.704 340.886ZM393.419 343.759V327.675C393.419 326.904 393.606 326.203 393.98 325.572C394.377 324.918 394.891 324.404 395.522 324.03C396.176 323.633 396.888 323.435 397.659 323.435H409.083V326.308H397.659C397.285 326.308 396.958 326.448 396.678 326.729C396.421 326.986 396.293 327.301 396.293 327.675V343.759H393.419ZM414.61 343.759C413.816 343.759 413.091 343.572 412.437 343.199C411.807 342.801 411.293 342.287 410.895 341.657C410.522 341.003 410.335 340.29 410.335 339.519V327.675C410.335 326.904 410.522 326.203 410.895 325.572C411.293 324.918 411.807 324.404 412.437 324.03C413.091 323.633 413.816 323.435 414.61 323.435H428.171V316.777H431.045V343.759H414.61ZM414.61 340.886H426.805C427.179 340.886 427.494 340.757 427.751 340.5C428.031 340.22 428.171 339.893 428.171 339.519V327.675C428.171 327.301 428.031 326.986 427.751 326.729C427.494 326.448 427.179 326.308 426.805 326.308H414.61C414.236 326.308 413.909 326.448 413.629 326.729C413.372 326.986 413.243 327.301 413.243 327.675V339.519C413.243 339.893 413.372 340.22 413.629 340.5C413.909 340.757 414.236 340.886 414.61 340.886ZM434.724 343.759V327.675C434.724 326.904 434.911 326.203 435.285 325.572C435.682 324.918 436.196 324.404 436.827 324.03C437.481 323.633 438.193 323.435 438.964 323.435H450.388V326.308H438.964C438.591 326.308 438.263 326.448 437.983 326.729C437.726 326.986 437.598 327.301 437.598 327.675V343.759H434.724ZM456.861 343.759C456.09 343.759 455.378 343.572 454.724 343.199C454.093 342.801 453.579 342.287 453.182 341.657C452.808 341.003 452.621 340.29 452.621 339.519V327.675C452.621 326.904 452.808 326.203 453.182 325.572C453.579 324.918 454.093 324.404 454.724 324.03C455.378 323.633 456.09 323.435 456.861 323.435H469.056C469.85 323.435 470.563 323.633 471.194 324.03C471.848 324.404 472.362 324.918 472.735 325.572C473.133 326.203 473.331 326.904 473.331 327.675V335.034H455.495V339.519C455.495 339.893 455.623 340.22 455.88 340.5C456.16 340.757 456.487 340.886 456.861 340.886H473.331V343.759H456.861ZM455.495 332.16H470.423V327.675C470.423 327.301 470.282 326.986 470.002 326.729C469.745 326.448 469.43 326.308 469.056 326.308H456.861C456.487 326.308 456.16 326.448 455.88 326.729C455.623 326.986 455.495 327.301 455.495 327.675V332.16ZM481.159 343.759C480.388 343.759 479.676 343.572 479.021 343.199C478.391 342.801 477.877 342.287 477.48 341.657C477.106 341.003 476.919 340.29 476.919 339.519V332.16H494.721V327.675C494.721 327.301 494.58 326.986 494.3 326.729C494.043 326.448 493.728 326.308 493.354 326.308H476.919V323.435H493.354C494.148 323.435 494.861 323.633 495.491 324.03C496.146 324.404 496.66 324.918 497.033 325.572C497.43 326.203 497.629 326.904 497.629 327.675V343.759H481.159ZM481.159 340.886H494.721V335.034H479.792V339.519C479.792 339.893 479.921 340.22 480.178 340.5C480.458 340.757 480.785 340.886 481.159 340.886ZM500.636 343.759V323.435H527.478C528.273 323.435 528.985 323.633 529.616 324.03C530.27 324.404 530.784 324.918 531.158 325.572C531.532 326.203 531.719 326.904 531.719 327.675V343.759H528.88V327.675C528.88 327.301 528.74 326.986 528.46 326.729C528.179 326.448 527.852 326.308 527.478 326.308H519.033C518.659 326.308 518.332 326.448 518.052 326.729C517.795 326.986 517.667 327.301 517.667 327.675V343.759H514.758V327.675C514.758 327.301 514.618 326.986 514.337 326.729C514.081 326.448 513.765 326.308 513.391 326.308H504.911C504.537 326.308 504.21 326.448 503.93 326.729C503.673 326.986 503.544 327.301 503.544 327.675V343.759H500.636Z" fill="white"/>
<path d="M360.371 326.835L361.293 332.269L366.892 333.164L361.293 334.059L360.371 339.492L359.449 334.059L353.85 333.164L359.449 332.269L360.371 326.835Z" fill="white"/>
</g>
<defs>
<filter id="filter0_f_2373_11318" x="99.3193" y="120.494" width="411.599" height="405.617" filterUnits="userSpaceOnUse" color-interpolation-filters="sRGB">
<feFlood flood-opacity="0" result="BackgroundImageFix"/>
<feBlend mode="normal" in="SourceGraphic" in2="BackgroundImageFix" result="shape"/>
<feGaussianBlur stdDeviation="3.75" result="effect1_foregroundBlur_2373_11318"/>
</filter>
<filter id="filter1_f_2373_11318" x="74.6807" y="98.3179" width="426.269" height="419.853" filterUnits="userSpaceOnUse" color-interpolation-filters="sRGB">
<feFlood flood-opacity="0" result="BackgroundImageFix"/>
<feBlend mode="normal" in="SourceGraphic" in2="BackgroundImageFix" result="shape"/>
<feGaussianBlur stdDeviation="3.75" result="effect1_foregroundBlur_2373_11318"/>
</filter>
<filter id="filter2_f_2373_11318" x="399.076" y="64.9126" width="83.4902" height="83.4824" filterUnits="userSpaceOnUse" color-interpolation-filters="sRGB">
<feFlood flood-opacity="0" result="BackgroundImageFix"/>
<feBlend mode="normal" in="SourceGraphic" in2="BackgroundImageFix" result="shape"/>
<feGaussianBlur stdDeviation="15" result="effect1_foregroundBlur_2373_11318"/>
</filter>
<filter id="filter3_f_2373_11318" x="192.262" y="462.322" width="87.4053" height="87.3955" filterUnits="userSpaceOnUse" color-interpolation-filters="sRGB">
<feFlood flood-opacity="0" result="BackgroundImageFix"/>
<feBlend mode="normal" in="SourceGraphic" in2="BackgroundImageFix" result="shape"/>
<feGaussianBlur stdDeviation="15" result="effect1_foregroundBlur_2373_11318"/>
</filter>
<clipPath id="clip0_2373_11318">
<rect width="404.838" height="71.9439" fill="white" transform="translate(218.162 308.759)"/>
</clipPath>
</defs>
</svg>
