<svg width="1920" height="1080" viewBox="0 0 1920 1080" fill="none" xmlns="http://www.w3.org/2000/svg">
<g clip-path="url(#clip0_2373_11644)">
<rect width="1920" height="1080" fill="#02040F"/>
<g opacity="0.55">
<path d="M137 634L137.424 639.576L143 640L137.424 640.424L137 646L136.576 640.424L131 640L136.576 639.576L137 634Z" fill="white"/>
<path d="M121.5 478L121.818 482.182L126 482.5L121.818 482.818L121.5 487L121.182 482.818L117 482.5L121.182 482.182L121.5 478Z" fill="white"/>
<path d="M297.5 375L297.818 379.182L302 379.5L297.818 379.818L297.5 384L297.182 379.818L293 379.5L297.182 379.182L297.5 375Z" fill="white"/>
<path d="M198.5 313L198.747 316.253L202 316.5L198.747 316.747L198.5 320L198.253 316.747L195 316.5L198.253 316.253L198.5 313Z" fill="white"/>
<path d="M239.5 514L240.03 520.97L247 521.5L240.03 522.03L239.5 529L238.97 522.03L232 521.5L238.97 520.97L239.5 514Z" fill="white"/>
<path d="M-19 67L-18.4343 74.4343L-11 75L-18.4343 75.5657L-19 83L-19.5657 75.5657L-27 75L-19.5657 74.4343L-19 67Z" fill="white"/>
<path d="M265 273L265.495 279.505L272 280L265.495 280.495L265 287L264.505 280.495L258 280L264.505 279.505L265 273Z" fill="white"/>
<path d="M22.5 166L22.8889 171.111L28 171.5L22.8889 171.889L22.5 177L22.1111 171.889L17 171.5L22.1111 171.111L22.5 166Z" fill="white"/>
<path d="M67.5 86L67.8889 91.1111L73 91.5L67.8889 91.8889L67.5 97L67.1111 91.8889L62 91.5L67.1111 91.1111L67.5 86Z" fill="white"/>
<path d="M160 134L160.495 140.505L167 141L160.495 141.495L160 148L159.505 141.495L153 141L159.505 140.505L160 134Z" fill="white"/>
<path d="M-2 303L-1.50503 309.505L5 310L-1.50503 310.495L-2 317L-2.49497 310.495L-9 310L-2.49497 309.505L-2 303Z" fill="white"/>
<path d="M278 684L278.566 691.434L286 692L278.566 692.566L278 700L277.434 692.566L270 692L277.434 691.434L278 684Z" fill="white"/>
<path d="M242.5 75L242.889 80.1111L248 80.5L242.889 80.8889L242.5 86L242.111 80.8889L237 80.5L242.111 80.1111L242.5 75Z" fill="white"/>
<path d="M284.5 172L284.889 177.111L290 177.5L284.889 177.889L284.5 183L284.111 177.889L279 177.5L284.111 177.111L284.5 172Z" fill="white"/>
<path d="M-17.5 538L-17.1111 543.111L-12 543.5L-17.1111 543.889L-17.5 549L-17.8889 543.889L-23 543.5L-17.8889 543.111L-17.5 538Z" fill="white"/>
<path d="M12.5 712L12.9596 718.04L19 718.5L12.9596 718.96L12.5 725L12.0404 718.96L6 718.5L12.0404 718.04L12.5 712Z" fill="white"/>
<path d="M466 634L466.424 639.576L472 640L466.424 640.424L466 646L465.576 640.424L460 640L465.576 639.576L466 634Z" fill="white"/>
<path d="M450.5 478L450.818 482.182L455 482.5L450.818 482.818L450.5 487L450.182 482.818L446 482.5L450.182 482.182L450.5 478Z" fill="white"/>
<path d="M626.5 375L626.818 379.182L631 379.5L626.818 379.818L626.5 384L626.182 379.818L622 379.5L626.182 379.182L626.5 375Z" fill="white"/>
<path d="M527.5 313L527.747 316.253L531 316.5L527.747 316.747L527.5 320L527.253 316.747L524 316.5L527.253 316.253L527.5 313Z" fill="white"/>
<path d="M568.5 514L569.03 520.97L576 521.5L569.03 522.03L568.5 529L567.97 522.03L561 521.5L567.97 520.97L568.5 514Z" fill="white"/>
<path d="M310 67L310.566 74.4343L318 75L310.566 75.5657L310 83L309.434 75.5657L302 75L309.434 74.4343L310 67Z" fill="white"/>
<path d="M594 273L594.495 279.505L601 280L594.495 280.495L594 287L593.505 280.495L587 280L593.505 279.505L594 273Z" fill="white"/>
<path d="M351.5 166L351.889 171.111L357 171.5L351.889 171.889L351.5 177L351.111 171.889L346 171.5L351.111 171.111L351.5 166Z" fill="white"/>
<path d="M489 134L489.495 140.505L496 141L489.495 141.495L489 148L488.505 141.495L482 141L488.505 140.505L489 134Z" fill="white"/>
<path d="M327 303L327.495 309.505L334 310L327.495 310.495L327 317L326.505 310.495L320 310L326.505 309.505L327 303Z" fill="white"/>
<path d="M607 684L607.566 691.434L615 692L607.566 692.566L607 700L606.434 692.566L599 692L606.434 691.434L607 684Z" fill="white"/>
<path d="M571.5 75L571.889 80.1111L577 80.5L571.889 80.8889L571.5 86L571.111 80.8889L566 80.5L571.111 80.1111L571.5 75Z" fill="white"/>
<path d="M613.5 172L613.889 177.111L619 177.5L613.889 177.889L613.5 183L613.111 177.889L608 177.5L613.111 177.111L613.5 172Z" fill="white"/>
<path d="M311.5 538L311.889 543.111L317 543.5L311.889 543.889L311.5 549L311.111 543.889L306 543.5L311.111 543.111L311.5 538Z" fill="white"/>
<path d="M341.5 712L341.96 718.04L348 718.5L341.96 718.96L341.5 725L341.04 718.96L335 718.5L341.04 718.04L341.5 712Z" fill="white"/>
<path d="M795 634L795.424 639.576L801 640L795.424 640.424L795 646L794.576 640.424L789 640L794.576 639.576L795 634Z" fill="white"/>
<path d="M779.5 478L779.818 482.182L784 482.5L779.818 482.818L779.5 487L779.182 482.818L775 482.5L779.182 482.182L779.5 478Z" fill="white"/>
<path d="M955.5 375L955.818 379.182L960 379.5L955.818 379.818L955.5 384L955.182 379.818L951 379.5L955.182 379.182L955.5 375Z" fill="white"/>
<path d="M856.5 313L856.747 316.253L860 316.5L856.747 316.747L856.5 320L856.253 316.747L853 316.5L856.253 316.253L856.5 313Z" fill="white"/>
<path d="M897.5 514L898.03 520.97L905 521.5L898.03 522.03L897.5 529L896.97 522.03L890 521.5L896.97 520.97L897.5 514Z" fill="white"/>
<path d="M639 67L639.566 74.4343L647 75L639.566 75.5657L639 83L638.434 75.5657L631 75L638.434 74.4343L639 67Z" fill="white"/>
<path d="M923 273L923.495 279.505L930 280L923.495 280.495L923 287L922.505 280.495L916 280L922.505 279.505L923 273Z" fill="white"/>
<path d="M680.5 166L680.889 171.111L686 171.5L680.889 171.889L680.5 177L680.111 171.889L675 171.5L680.111 171.111L680.5 166Z" fill="white"/>
<path d="M818 134L818.495 140.505L825 141L818.495 141.495L818 148L817.505 141.495L811 141L817.505 140.505L818 134Z" fill="white"/>
<path d="M656 303L656.495 309.505L663 310L656.495 310.495L656 317L655.505 310.495L649 310L655.505 309.505L656 303Z" fill="white"/>
<path d="M936 684L936.566 691.434L944 692L936.566 692.566L936 700L935.434 692.566L928 692L935.434 691.434L936 684Z" fill="white"/>
<path d="M900.5 75L900.889 80.1111L906 80.5L900.889 80.8889L900.5 86L900.111 80.8889L895 80.5L900.111 80.1111L900.5 75Z" fill="white"/>
<path d="M942.5 172L942.889 177.111L948 177.5L942.889 177.889L942.5 183L942.111 177.889L937 177.5L942.111 177.111L942.5 172Z" fill="white"/>
<path d="M640.5 538L640.889 543.111L646 543.5L640.889 543.889L640.5 549L640.111 543.889L635 543.5L640.111 543.111L640.5 538Z" fill="white"/>
<path d="M670.5 712L670.96 718.04L677 718.5L670.96 718.96L670.5 725L670.04 718.96L664 718.5L670.04 718.04L670.5 712Z" fill="white"/>
<path d="M1124 634L1124.42 639.576L1130 640L1124.42 640.424L1124 646L1123.58 640.424L1118 640L1123.58 639.576L1124 634Z" fill="white"/>
<path d="M1108.5 478L1108.82 482.182L1113 482.5L1108.82 482.818L1108.5 487L1108.18 482.818L1104 482.5L1108.18 482.182L1108.5 478Z" fill="white"/>
<path d="M1284.5 375L1284.82 379.182L1289 379.5L1284.82 379.818L1284.5 384L1284.18 379.818L1280 379.5L1284.18 379.182L1284.5 375Z" fill="white"/>
<path d="M1185.5 313L1185.75 316.253L1189 316.5L1185.75 316.747L1185.5 320L1185.25 316.747L1182 316.5L1185.25 316.253L1185.5 313Z" fill="white"/>
<path d="M1226.5 514L1227.03 520.97L1234 521.5L1227.03 522.03L1226.5 529L1225.97 522.03L1219 521.5L1225.97 520.97L1226.5 514Z" fill="white"/>
<path d="M968 67L968.566 74.4343L976 75L968.566 75.5657L968 83L967.434 75.5657L960 75L967.434 74.4343L968 67Z" fill="white"/>
<path d="M1252 273L1252.49 279.505L1259 280L1252.49 280.495L1252 287L1251.51 280.495L1245 280L1251.51 279.505L1252 273Z" fill="white"/>
<path d="M1009.5 166L1009.89 171.111L1015 171.5L1009.89 171.889L1009.5 177L1009.11 171.889L1004 171.5L1009.11 171.111L1009.5 166Z" fill="white"/>
<path d="M1147 134L1147.49 140.505L1154 141L1147.49 141.495L1147 148L1146.51 141.495L1140 141L1146.51 140.505L1147 134Z" fill="white"/>
<path d="M985 303L985.495 309.505L992 310L985.495 310.495L985 317L984.505 310.495L978 310L984.505 309.505L985 303Z" fill="white"/>
<path d="M1265 684L1265.57 691.434L1273 692L1265.57 692.566L1265 700L1264.43 692.566L1257 692L1264.43 691.434L1265 684Z" fill="white"/>
<path d="M1229.5 75L1229.89 80.1111L1235 80.5L1229.89 80.8889L1229.5 86L1229.11 80.8889L1224 80.5L1229.11 80.1111L1229.5 75Z" fill="white"/>
<path d="M1271.5 172L1271.89 177.111L1277 177.5L1271.89 177.889L1271.5 183L1271.11 177.889L1266 177.5L1271.11 177.111L1271.5 172Z" fill="white"/>
<path d="M969.5 538L969.889 543.111L975 543.5L969.889 543.889L969.5 549L969.111 543.889L964 543.5L969.111 543.111L969.5 538Z" fill="white"/>
<path d="M999.5 712L999.96 718.04L1006 718.5L999.96 718.96L999.5 725L999.04 718.96L993 718.5L999.04 718.04L999.5 712Z" fill="white"/>
<path d="M1453 634L1453.42 639.576L1459 640L1453.42 640.424L1453 646L1452.58 640.424L1447 640L1452.58 639.576L1453 634Z" fill="white"/>
<path d="M1437.5 478L1437.82 482.182L1442 482.5L1437.82 482.818L1437.5 487L1437.18 482.818L1433 482.5L1437.18 482.182L1437.5 478Z" fill="white"/>
<path d="M1613.5 375L1613.82 379.182L1618 379.5L1613.82 379.818L1613.5 384L1613.18 379.818L1609 379.5L1613.18 379.182L1613.5 375Z" fill="white"/>
<path d="M1514.5 313L1514.75 316.253L1518 316.5L1514.75 316.747L1514.5 320L1514.25 316.747L1511 316.5L1514.25 316.253L1514.5 313Z" fill="white"/>
<path d="M1555.5 514L1556.03 520.97L1563 521.5L1556.03 522.03L1555.5 529L1554.97 522.03L1548 521.5L1554.97 520.97L1555.5 514Z" fill="white"/>
<path d="M1297 67L1297.57 74.4343L1305 75L1297.57 75.5657L1297 83L1296.43 75.5657L1289 75L1296.43 74.4343L1297 67Z" fill="white"/>
<path d="M1581 273L1581.49 279.505L1588 280L1581.49 280.495L1581 287L1580.51 280.495L1574 280L1580.51 279.505L1581 273Z" fill="white"/>
<path d="M1338.5 166L1338.89 171.111L1344 171.5L1338.89 171.889L1338.5 177L1338.11 171.889L1333 171.5L1338.11 171.111L1338.5 166Z" fill="white"/>
<path d="M1476 134L1476.49 140.505L1483 141L1476.49 141.495L1476 148L1475.51 141.495L1469 141L1475.51 140.505L1476 134Z" fill="white"/>
<path d="M1314 303L1314.49 309.505L1321 310L1314.49 310.495L1314 317L1313.51 310.495L1307 310L1313.51 309.505L1314 303Z" fill="white"/>
<path d="M1594 684L1594.57 691.434L1602 692L1594.57 692.566L1594 700L1593.43 692.566L1586 692L1593.43 691.434L1594 684Z" fill="white"/>
<path d="M1558.5 75L1558.89 80.1111L1564 80.5L1558.89 80.8889L1558.5 86L1558.11 80.8889L1553 80.5L1558.11 80.1111L1558.5 75Z" fill="white"/>
<path d="M1600.5 172L1600.89 177.111L1606 177.5L1600.89 177.889L1600.5 183L1600.11 177.889L1595 177.5L1600.11 177.111L1600.5 172Z" fill="white"/>
<path d="M1298.5 538L1298.89 543.111L1304 543.5L1298.89 543.889L1298.5 549L1298.11 543.889L1293 543.5L1298.11 543.111L1298.5 538Z" fill="white"/>
<path d="M1328.5 712L1328.96 718.04L1335 718.5L1328.96 718.96L1328.5 725L1328.04 718.96L1322 718.5L1328.04 718.04L1328.5 712Z" fill="white"/>
<path d="M1782 634L1782.42 639.576L1788 640L1782.42 640.424L1782 646L1781.58 640.424L1776 640L1781.58 639.576L1782 634Z" fill="white"/>
<path d="M1766.5 478L1766.82 482.182L1771 482.5L1766.82 482.818L1766.5 487L1766.18 482.818L1762 482.5L1766.18 482.182L1766.5 478Z" fill="white"/>
<path d="M1942.5 375L1942.82 379.182L1947 379.5L1942.82 379.818L1942.5 384L1942.18 379.818L1938 379.5L1942.18 379.182L1942.5 375Z" fill="white"/>
<path d="M1843.5 313L1843.75 316.253L1847 316.5L1843.75 316.747L1843.5 320L1843.25 316.747L1840 316.5L1843.25 316.253L1843.5 313Z" fill="white"/>
<path d="M1884.5 514L1885.03 520.97L1892 521.5L1885.03 522.03L1884.5 529L1883.97 522.03L1877 521.5L1883.97 520.97L1884.5 514Z" fill="white"/>
<path d="M1626 67L1626.57 74.4343L1634 75L1626.57 75.5657L1626 83L1625.43 75.5657L1618 75L1625.43 74.4343L1626 67Z" fill="white"/>
<path d="M1910 273L1910.49 279.505L1917 280L1910.49 280.495L1910 287L1909.51 280.495L1903 280L1909.51 279.505L1910 273Z" fill="white"/>
<path d="M1667.5 166L1667.89 171.111L1673 171.5L1667.89 171.889L1667.5 177L1667.11 171.889L1662 171.5L1667.11 171.111L1667.5 166Z" fill="white"/>
<path d="M1805 134L1805.49 140.505L1812 141L1805.49 141.495L1805 148L1804.51 141.495L1798 141L1804.51 140.505L1805 134Z" fill="white"/>
<path d="M1643 303L1643.49 309.505L1650 310L1643.49 310.495L1643 317L1642.51 310.495L1636 310L1642.51 309.505L1643 303Z" fill="white"/>
<path d="M1923 684L1923.57 691.434L1931 692L1923.57 692.566L1923 700L1922.43 692.566L1915 692L1922.43 691.434L1923 684Z" fill="white"/>
<path d="M1887.5 75L1887.89 80.1111L1893 80.5L1887.89 80.8889L1887.5 86L1887.11 80.8889L1882 80.5L1887.11 80.1111L1887.5 75Z" fill="white"/>
<path d="M1929.5 172L1929.89 177.111L1935 177.5L1929.89 177.889L1929.5 183L1929.11 177.889L1924 177.5L1929.11 177.111L1929.5 172Z" fill="white"/>
<path d="M1627.5 538L1627.89 543.111L1633 543.5L1627.89 543.889L1627.5 549L1627.11 543.889L1622 543.5L1627.11 543.111L1627.5 538Z" fill="white"/>
<path d="M1657.5 712L1657.96 718.04L1664 718.5L1657.96 718.96L1657.5 725L1657.04 718.96L1651 718.5L1657.04 718.04L1657.5 712Z" fill="white"/>
<path d="M1701 1335L1700.58 1340.58L1695 1341L1700.58 1341.42L1701 1347L1701.42 1341.42L1707 1341L1701.42 1340.58L1701 1335Z" fill="white"/>
<path d="M1716.5 1179L1716.18 1183.18L1712 1183.5L1716.18 1183.82L1716.5 1188L1716.82 1183.82L1721 1183.5L1716.82 1183.18L1716.5 1179Z" fill="white"/>
<path d="M1540.5 1076L1540.18 1080.18L1536 1080.5L1540.18 1080.82L1540.5 1085L1540.82 1080.82L1545 1080.5L1540.82 1080.18L1540.5 1076Z" fill="white"/>
<path d="M1639.5 1014L1639.25 1017.25L1636 1017.5L1639.25 1017.75L1639.5 1021L1639.75 1017.75L1643 1017.5L1639.75 1017.25L1639.5 1014Z" fill="white"/>
<path d="M1598.5 1215L1597.97 1221.97L1591 1222.5L1597.97 1223.03L1598.5 1230L1599.03 1223.03L1606 1222.5L1599.03 1221.97L1598.5 1215Z" fill="white"/>
<path d="M1857 768L1856.43 775.434L1849 776L1856.43 776.566L1857 784L1857.57 776.566L1865 776L1857.57 775.434L1857 768Z" fill="white"/>
<path d="M1573 974L1572.51 980.505L1566 981L1572.51 981.495L1573 988L1573.49 981.495L1580 981L1573.49 980.505L1573 974Z" fill="white"/>
<path d="M1815.5 867L1815.11 872.111L1810 872.5L1815.11 872.889L1815.5 878L1815.89 872.889L1821 872.5L1815.89 872.111L1815.5 867Z" fill="white"/>
<path d="M1678 835L1677.51 841.505L1671 842L1677.51 842.495L1678 849L1678.49 842.495L1685 842L1678.49 841.505L1678 835Z" fill="white"/>
<path d="M1840 1004L1839.51 1010.51L1833 1011L1839.51 1011.49L1840 1018L1840.49 1011.49L1847 1011L1840.49 1010.51L1840 1004Z" fill="white"/>
<path d="M1560 1385L1559.43 1392.43L1552 1393L1559.43 1393.57L1560 1401L1560.57 1393.57L1568 1393L1560.57 1392.43L1560 1385Z" fill="white"/>
<path d="M1595.5 776L1595.11 781.111L1590 781.5L1595.11 781.889L1595.5 787L1595.89 781.889L1601 781.5L1595.89 781.111L1595.5 776Z" fill="white"/>
<path d="M1553.5 873L1553.11 878.111L1548 878.5L1553.11 878.889L1553.5 884L1553.89 878.889L1559 878.5L1553.89 878.111L1553.5 873Z" fill="white"/>
<path d="M1855.5 1239L1855.11 1244.11L1850 1244.5L1855.11 1244.89L1855.5 1250L1855.89 1244.89L1861 1244.5L1855.89 1244.11L1855.5 1239Z" fill="white"/>
<path d="M1825.5 1413L1825.04 1419.04L1819 1419.5L1825.04 1419.96L1825.5 1426L1825.96 1419.96L1832 1419.5L1825.96 1419.04L1825.5 1413Z" fill="white"/>
<path d="M1372 1335L1371.58 1340.58L1366 1341L1371.58 1341.42L1372 1347L1372.42 1341.42L1378 1341L1372.42 1340.58L1372 1335Z" fill="white"/>
<path d="M1387.5 1179L1387.18 1183.18L1383 1183.5L1387.18 1183.82L1387.5 1188L1387.82 1183.82L1392 1183.5L1387.82 1183.18L1387.5 1179Z" fill="white"/>
<path d="M1211.5 1076L1211.18 1080.18L1207 1080.5L1211.18 1080.82L1211.5 1085L1211.82 1080.82L1216 1080.5L1211.82 1080.18L1211.5 1076Z" fill="white"/>
<path d="M1310.5 1014L1310.25 1017.25L1307 1017.5L1310.25 1017.75L1310.5 1021L1310.75 1017.75L1314 1017.5L1310.75 1017.25L1310.5 1014Z" fill="white"/>
<path d="M1269.5 1215L1268.97 1221.97L1262 1222.5L1268.97 1223.03L1269.5 1230L1270.03 1223.03L1277 1222.5L1270.03 1221.97L1269.5 1215Z" fill="white"/>
<path d="M1528 768L1527.43 775.434L1520 776L1527.43 776.566L1528 784L1528.57 776.566L1536 776L1528.57 775.434L1528 768Z" fill="white"/>
<path d="M1244 974L1243.51 980.505L1237 981L1243.51 981.495L1244 988L1244.49 981.495L1251 981L1244.49 980.505L1244 974Z" fill="white"/>
<path d="M1486.5 867L1486.11 872.111L1481 872.5L1486.11 872.889L1486.5 878L1486.89 872.889L1492 872.5L1486.89 872.111L1486.5 867Z" fill="white"/>
<path d="M1349 835L1348.51 841.505L1342 842L1348.51 842.495L1349 849L1349.49 842.495L1356 842L1349.49 841.505L1349 835Z" fill="white"/>
<path d="M1511 1004L1510.51 1010.51L1504 1011L1510.51 1011.49L1511 1018L1511.49 1011.49L1518 1011L1511.49 1010.51L1511 1004Z" fill="white"/>
<path d="M1231 1385L1230.43 1392.43L1223 1393L1230.43 1393.57L1231 1401L1231.57 1393.57L1239 1393L1231.57 1392.43L1231 1385Z" fill="white"/>
<path d="M1266.5 776L1266.11 781.111L1261 781.5L1266.11 781.889L1266.5 787L1266.89 781.889L1272 781.5L1266.89 781.111L1266.5 776Z" fill="white"/>
<path d="M1224.5 873L1224.11 878.111L1219 878.5L1224.11 878.889L1224.5 884L1224.89 878.889L1230 878.5L1224.89 878.111L1224.5 873Z" fill="white"/>
<path d="M1526.5 1239L1526.11 1244.11L1521 1244.5L1526.11 1244.89L1526.5 1250L1526.89 1244.89L1532 1244.5L1526.89 1244.11L1526.5 1239Z" fill="white"/>
<path d="M1496.5 1413L1496.04 1419.04L1490 1419.5L1496.04 1419.96L1496.5 1426L1496.96 1419.96L1503 1419.5L1496.96 1419.04L1496.5 1413Z" fill="white"/>
<path d="M1043 1335L1042.58 1340.58L1037 1341L1042.58 1341.42L1043 1347L1043.42 1341.42L1049 1341L1043.42 1340.58L1043 1335Z" fill="white"/>
<path d="M1058.5 1179L1058.18 1183.18L1054 1183.5L1058.18 1183.82L1058.5 1188L1058.82 1183.82L1063 1183.5L1058.82 1183.18L1058.5 1179Z" fill="white"/>
<path d="M882.5 1076L882.182 1080.18L878 1080.5L882.182 1080.82L882.5 1085L882.818 1080.82L887 1080.5L882.818 1080.18L882.5 1076Z" fill="white"/>
<path d="M981.5 1014L981.253 1017.25L978 1017.5L981.253 1017.75L981.5 1021L981.747 1017.75L985 1017.5L981.747 1017.25L981.5 1014Z" fill="white"/>
<path d="M940.5 1215L939.97 1221.97L933 1222.5L939.97 1223.03L940.5 1230L941.03 1223.03L948 1222.5L941.03 1221.97L940.5 1215Z" fill="white"/>
<path d="M1199 768L1198.43 775.434L1191 776L1198.43 776.566L1199 784L1199.57 776.566L1207 776L1199.57 775.434L1199 768Z" fill="white"/>
<path d="M915 974L914.505 980.505L908 981L914.505 981.495L915 988L915.495 981.495L922 981L915.495 980.505L915 974Z" fill="white"/>
<path d="M1157.5 867L1157.11 872.111L1152 872.5L1157.11 872.889L1157.5 878L1157.89 872.889L1163 872.5L1157.89 872.111L1157.5 867Z" fill="white"/>
<path d="M1020 835L1019.51 841.505L1013 842L1019.51 842.495L1020 849L1020.49 842.495L1027 842L1020.49 841.505L1020 835Z" fill="white"/>
<path d="M1182 1004L1181.51 1010.51L1175 1011L1181.51 1011.49L1182 1018L1182.49 1011.49L1189 1011L1182.49 1010.51L1182 1004Z" fill="white"/>
<path d="M902 1385L901.434 1392.43L894 1393L901.434 1393.57L902 1401L902.566 1393.57L910 1393L902.566 1392.43L902 1385Z" fill="white"/>
<path d="M937.5 776L937.111 781.111L932 781.5L937.111 781.889L937.5 787L937.889 781.889L943 781.5L937.889 781.111L937.5 776Z" fill="white"/>
<path d="M895.5 873L895.111 878.111L890 878.5L895.111 878.889L895.5 884L895.889 878.889L901 878.5L895.889 878.111L895.5 873Z" fill="white"/>
<path d="M1197.5 1239L1197.11 1244.11L1192 1244.5L1197.11 1244.89L1197.5 1250L1197.89 1244.89L1203 1244.5L1197.89 1244.11L1197.5 1239Z" fill="white"/>
<path d="M1167.5 1413L1167.04 1419.04L1161 1419.5L1167.04 1419.96L1167.5 1426L1167.96 1419.96L1174 1419.5L1167.96 1419.04L1167.5 1413Z" fill="white"/>
<path d="M714 1335L713.576 1340.58L708 1341L713.576 1341.42L714 1347L714.424 1341.42L720 1341L714.424 1340.58L714 1335Z" fill="white"/>
<path d="M729.5 1179L729.182 1183.18L725 1183.5L729.182 1183.82L729.5 1188L729.818 1183.82L734 1183.5L729.818 1183.18L729.5 1179Z" fill="white"/>
<path d="M553.5 1076L553.182 1080.18L549 1080.5L553.182 1080.82L553.5 1085L553.818 1080.82L558 1080.5L553.818 1080.18L553.5 1076Z" fill="white"/>
<path d="M652.5 1014L652.253 1017.25L649 1017.5L652.253 1017.75L652.5 1021L652.747 1017.75L656 1017.5L652.747 1017.25L652.5 1014Z" fill="white"/>
<path d="M611.5 1215L610.97 1221.97L604 1222.5L610.97 1223.03L611.5 1230L612.03 1223.03L619 1222.5L612.03 1221.97L611.5 1215Z" fill="white"/>
<path d="M870 768L869.434 775.434L862 776L869.434 776.566L870 784L870.566 776.566L878 776L870.566 775.434L870 768Z" fill="white"/>
<path d="M586 974L585.505 980.505L579 981L585.505 981.495L586 988L586.495 981.495L593 981L586.495 980.505L586 974Z" fill="white"/>
<path d="M828.5 867L828.111 872.111L823 872.5L828.111 872.889L828.5 878L828.889 872.889L834 872.5L828.889 872.111L828.5 867Z" fill="white"/>
<path d="M691 835L690.505 841.505L684 842L690.505 842.495L691 849L691.495 842.495L698 842L691.495 841.505L691 835Z" fill="white"/>
<path d="M853 1004L852.505 1010.51L846 1011L852.505 1011.49L853 1018L853.495 1011.49L860 1011L853.495 1010.51L853 1004Z" fill="white"/>
<path d="M573 1385L572.434 1392.43L565 1393L572.434 1393.57L573 1401L573.566 1393.57L581 1393L573.566 1392.43L573 1385Z" fill="white"/>
<path d="M608.5 776L608.111 781.111L603 781.5L608.111 781.889L608.5 787L608.889 781.889L614 781.5L608.889 781.111L608.5 776Z" fill="white"/>
<path d="M566.5 873L566.111 878.111L561 878.5L566.111 878.889L566.5 884L566.889 878.889L572 878.5L566.889 878.111L566.5 873Z" fill="white"/>
<path d="M868.5 1239L868.111 1244.11L863 1244.5L868.111 1244.89L868.5 1250L868.889 1244.89L874 1244.5L868.889 1244.11L868.5 1239Z" fill="white"/>
<path d="M838.5 1413L838.04 1419.04L832 1419.5L838.04 1419.96L838.5 1426L838.96 1419.96L845 1419.5L838.96 1419.04L838.5 1413Z" fill="white"/>
<path d="M385 1335L384.576 1340.58L379 1341L384.576 1341.42L385 1347L385.424 1341.42L391 1341L385.424 1340.58L385 1335Z" fill="white"/>
<path d="M400.5 1179L400.182 1183.18L396 1183.5L400.182 1183.82L400.5 1188L400.818 1183.82L405 1183.5L400.818 1183.18L400.5 1179Z" fill="white"/>
<path d="M224.5 1076L224.182 1080.18L220 1080.5L224.182 1080.82L224.5 1085L224.818 1080.82L229 1080.5L224.818 1080.18L224.5 1076Z" fill="white"/>
<path d="M323.5 1014L323.253 1017.25L320 1017.5L323.253 1017.75L323.5 1021L323.747 1017.75L327 1017.5L323.747 1017.25L323.5 1014Z" fill="white"/>
<path d="M282.5 1215L281.97 1221.97L275 1222.5L281.97 1223.03L282.5 1230L283.03 1223.03L290 1222.5L283.03 1221.97L282.5 1215Z" fill="white"/>
<path d="M541 768L540.434 775.434L533 776L540.434 776.566L541 784L541.566 776.566L549 776L541.566 775.434L541 768Z" fill="white"/>
<path d="M257 974L256.505 980.505L250 981L256.505 981.495L257 988L257.495 981.495L264 981L257.495 980.505L257 974Z" fill="white"/>
<path d="M499.5 867L499.111 872.111L494 872.5L499.111 872.889L499.5 878L499.889 872.889L505 872.5L499.889 872.111L499.5 867Z" fill="white"/>
<path d="M362 835L361.505 841.505L355 842L361.505 842.495L362 849L362.495 842.495L369 842L362.495 841.505L362 835Z" fill="white"/>
<path d="M524 1004L523.505 1010.51L517 1011L523.505 1011.49L524 1018L524.495 1011.49L531 1011L524.495 1010.51L524 1004Z" fill="white"/>
<path d="M244 1385L243.434 1392.43L236 1393L243.434 1393.57L244 1401L244.566 1393.57L252 1393L244.566 1392.43L244 1385Z" fill="white"/>
<path d="M279.5 776L279.111 781.111L274 781.5L279.111 781.889L279.5 787L279.889 781.889L285 781.5L279.889 781.111L279.5 776Z" fill="white"/>
<path d="M237.5 873L237.111 878.111L232 878.5L237.111 878.889L237.5 884L237.889 878.889L243 878.5L237.889 878.111L237.5 873Z" fill="white"/>
<path d="M539.5 1239L539.111 1244.11L534 1244.5L539.111 1244.89L539.5 1250L539.889 1244.89L545 1244.5L539.889 1244.11L539.5 1239Z" fill="white"/>
<path d="M509.5 1413L509.04 1419.04L503 1419.5L509.04 1419.96L509.5 1426L509.96 1419.96L516 1419.5L509.96 1419.04L509.5 1413Z" fill="white"/>
<path d="M56 1335L55.5757 1340.58L50 1341L55.5757 1341.42L56 1347L56.4243 1341.42L62 1341L56.4243 1340.58L56 1335Z" fill="white"/>
<path d="M71.5 1179L71.1818 1183.18L67 1183.5L71.1818 1183.82L71.5 1188L71.8182 1183.82L76 1183.5L71.8182 1183.18L71.5 1179Z" fill="white"/>
<path d="M-104.5 1076L-104.818 1080.18L-109 1080.5L-104.818 1080.82L-104.5 1085L-104.182 1080.82L-100 1080.5L-104.182 1080.18L-104.5 1076Z" fill="white"/>
<path d="M-5.5 1014L-5.74749 1017.25L-9 1017.5L-5.74749 1017.75L-5.5 1021L-5.25251 1017.75L-2 1017.5L-5.25251 1017.25L-5.5 1014Z" fill="white"/>
<path d="M-46.5 1215L-47.0303 1221.97L-54 1222.5L-47.0303 1223.03L-46.5 1230L-45.9697 1223.03L-39 1222.5L-45.9697 1221.97L-46.5 1215Z" fill="white"/>
<path d="M212 768L211.434 775.434L204 776L211.434 776.566L212 784L212.566 776.566L220 776L212.566 775.434L212 768Z" fill="white"/>
<path d="M-72 974L-72.495 980.505L-79 981L-72.495 981.495L-72 988L-71.505 981.495L-65 981L-71.505 980.505L-72 974Z" fill="white"/>
<path d="M170.5 867L170.111 872.111L165 872.5L170.111 872.889L170.5 878L170.889 872.889L176 872.5L170.889 872.111L170.5 867Z" fill="white"/>
<path d="M33 835L32.505 841.505L26 842L32.505 842.495L33 849L33.495 842.495L40 842L33.495 841.505L33 835Z" fill="white"/>
<path d="M195 1004L194.505 1010.51L188 1011L194.505 1011.49L195 1018L195.495 1011.49L202 1011L195.495 1010.51L195 1004Z" fill="white"/>
<path d="M-85 1385L-85.5657 1392.43L-93 1393L-85.5657 1393.57L-85 1401L-84.4343 1393.57L-77 1393L-84.4343 1392.43L-85 1385Z" fill="white"/>
<path d="M-49.5 776L-49.8889 781.111L-55 781.5L-49.8889 781.889L-49.5 787L-49.1111 781.889L-44 781.5L-49.1111 781.111L-49.5 776Z" fill="white"/>
<path d="M-91.5 873L-91.8889 878.111L-97 878.5L-91.8889 878.889L-91.5 884L-91.1111 878.889L-86 878.5L-91.1111 878.111L-91.5 873Z" fill="white"/>
<path d="M210.5 1239L210.111 1244.11L205 1244.5L210.111 1244.89L210.5 1250L210.889 1244.89L216 1244.5L210.889 1244.11L210.5 1239Z" fill="white"/>
<path d="M180.5 1413L180.04 1419.04L174 1419.5L180.04 1419.96L180.5 1426L180.96 1419.96L187 1419.5L180.96 1419.04L180.5 1413Z" fill="white"/>
</g>
</g>
<defs>
<clipPath id="clip0_2373_11644">
<rect width="1920" height="1080" fill="white"/>
</clipPath>
</defs>
</svg>
