<svg width="200" height="36" viewBox="0 0 200 36" fill="none" xmlns="http://www.w3.org/2000/svg">
<path d="M19.304 29L12.472 20.8598H15.5537L22.4148 28.9709V29H19.304ZM1.62805 29V8.097H19.0714C19.711 8.097 20.2925 8.26174 20.8158 8.59123C21.3585 8.90134 21.7849 9.31804 22.095 9.84134C22.4051 10.3646 22.5601 10.9461 22.5601 11.5857V17.7199C22.5601 18.3595 22.4051 18.941 22.095 19.4643C21.7849 19.9876 21.3585 20.414 20.8158 20.7435C20.2925 21.0536 19.711 21.2086 19.0714 21.2086H3.98291V29H1.62805ZM5.11673 18.8247H19.0714C19.3815 18.8247 19.6432 18.7181 19.8564 18.5049C20.089 18.2917 20.2053 18.03 20.2053 17.7199V11.5857C20.2053 11.2756 20.089 11.0139 19.8564 10.8007C19.6432 10.5681 19.3815 10.4519 19.0714 10.4519H5.11673C4.80662 10.4519 4.53528 10.5681 4.3027 10.8007C4.08951 11.0139 3.98291 11.2756 3.98291 11.5857V17.7199C3.98291 18.03 4.08951 18.2917 4.3027 18.5049C4.53528 18.7181 4.80662 18.8247 5.11673 18.8247ZM28.9908 29C28.3512 29 27.7601 28.8449 27.2174 28.5348C26.6941 28.2054 26.2677 27.779 25.9382 27.2557C25.6281 26.713 25.473 26.1218 25.473 25.4822V15.6558C25.473 15.0162 25.6281 14.4348 25.9382 13.9115C26.2677 13.3688 26.6941 12.9424 27.2174 12.6323C27.7601 12.3028 28.3512 12.1381 28.9908 12.1381H39.1079C39.7669 12.1381 40.3581 12.3028 40.8814 12.6323C41.424 12.9424 41.8504 13.3688 42.1605 13.9115C42.49 14.4348 42.6548 15.0162 42.6548 15.6558V21.761H27.857V25.4822C27.857 25.7924 27.9636 26.0637 28.1768 26.2963C28.4093 26.5095 28.6807 26.6161 28.9908 26.6161H42.6548V29H28.9908ZM27.857 19.3771H40.2418V15.6558C40.2418 15.3457 40.1255 15.084 39.8929 14.8709C39.6797 14.6383 39.4181 14.522 39.1079 14.522H28.9908C28.6807 14.522 28.4093 14.6383 28.1768 14.8709C27.9636 15.084 27.857 15.3457 27.857 15.6558V19.3771ZM48.5521 29C47.9125 29 47.3214 28.8449 46.7787 28.5348C46.2554 28.2054 45.829 27.779 45.4995 27.2557C45.1894 26.713 45.0344 26.1218 45.0344 25.4822V15.6558C45.0344 15.0162 45.1894 14.4348 45.4995 13.9115C45.829 13.3688 46.2554 12.9424 46.7787 12.6323C47.3214 12.3028 47.9125 12.1381 48.5521 12.1381H62.158V14.522H48.5521C48.242 14.522 47.9707 14.6383 47.7381 14.8709C47.5249 15.084 47.4183 15.3457 47.4183 15.6558V25.4822C47.4183 25.7924 47.5249 26.0637 47.7381 26.2963C47.9707 26.5095 48.242 26.6161 48.5521 26.6161H62.2161V29H48.5521ZM68.7665 29C68.1269 29 67.5358 28.8449 66.9931 28.5348C66.4698 28.2054 66.0434 27.779 65.7139 27.2557C65.4038 26.713 65.2487 26.1218 65.2487 25.4822V15.6558C65.2487 15.0162 65.4038 14.4348 65.7139 13.9115C66.0434 13.3688 66.4698 12.9424 66.9931 12.6323C67.5358 12.3028 68.1269 12.1381 68.7665 12.1381H78.8837C79.5426 12.1381 80.1338 12.3028 80.6571 12.6323C81.1997 12.9424 81.6261 13.3688 81.9362 13.9115C82.2657 14.4348 82.4305 15.0162 82.4305 15.6558V25.4822C82.4305 26.1218 82.2657 26.713 81.9362 27.2557C81.6261 27.779 81.1997 28.2054 80.6571 28.5348C80.1338 28.8449 79.5426 29 78.8837 29H68.7665ZM68.7665 26.6161H78.8837C79.1938 26.6161 79.4554 26.5095 79.6686 26.2963C79.9012 26.0637 80.0175 25.7924 80.0175 25.4822V15.6558C80.0175 15.3457 79.9012 15.084 79.6686 14.8709C79.4554 14.6383 79.1938 14.522 78.8837 14.522H68.7665C68.4564 14.522 68.185 14.6383 67.9525 14.8709C67.7393 15.084 67.6327 15.3457 67.6327 15.6558V25.4822C67.6327 25.7924 67.7393 26.0637 67.9525 26.2963C68.185 26.5095 68.4564 26.6161 68.7665 26.6161ZM85.1231 29V15.6558C85.1231 15.0162 85.2781 14.4348 85.5882 13.9115C85.9177 13.3688 86.3441 12.9424 86.8674 12.6323C87.4101 12.3028 88.0012 12.1381 88.6408 12.1381H98.1184V14.522H88.6408C88.3307 14.522 88.0594 14.6383 87.8268 14.8709C87.6136 15.084 87.507 15.3457 87.507 15.6558V29H85.1231ZM102.704 29C102.045 29 101.444 28.8449 100.901 28.5348C100.378 28.2054 99.9515 27.779 99.622 27.2557C99.3119 26.713 99.1568 26.1218 99.1568 25.4822V15.6558C99.1568 15.0162 99.3119 14.4348 99.622 13.9115C99.9515 13.3688 100.378 12.9424 100.901 12.6323C101.444 12.3028 102.045 12.1381 102.704 12.1381H113.955V6.61431H116.339V29H102.704ZM102.704 26.6161H112.821C113.131 26.6161 113.393 26.5095 113.606 26.2963C113.838 26.0637 113.955 25.7924 113.955 25.4822V15.6558C113.955 15.3457 113.838 15.084 113.606 14.8709C113.393 14.6383 113.131 14.522 112.821 14.522H102.704C102.394 14.522 102.122 14.6383 101.89 14.8709C101.676 15.084 101.57 15.3457 101.57 15.6558V25.4822C101.57 25.7924 101.676 26.0637 101.89 26.2963C102.122 26.5095 102.394 26.6161 102.704 26.6161ZM119.391 29V15.6558C119.391 15.0162 119.546 14.4348 119.856 13.9115C120.186 13.3688 120.612 12.9424 121.135 12.6323C121.678 12.3028 122.269 12.1381 122.909 12.1381H132.386V14.522H122.909C122.599 14.522 122.327 14.6383 122.095 14.8709C121.881 15.084 121.775 15.3457 121.775 15.6558V29H119.391ZM137.756 29C137.117 29 136.526 28.8449 135.983 28.5348C135.46 28.2054 135.033 27.779 134.704 27.2557C134.394 26.713 134.239 26.1218 134.239 25.4822V15.6558C134.239 15.0162 134.394 14.4348 134.704 13.9115C135.033 13.3688 135.46 12.9424 135.983 12.6323C136.526 12.3028 137.117 12.1381 137.756 12.1381H147.874C148.533 12.1381 149.124 12.3028 149.647 12.6323C150.19 12.9424 150.616 13.3688 150.926 13.9115C151.256 14.4348 151.42 15.0162 151.42 15.6558V21.761H136.623V25.4822C136.623 25.7924 136.729 26.0637 136.942 26.2963C137.175 26.5095 137.446 26.6161 137.756 26.6161H151.42V29H137.756ZM136.623 19.3771H149.007V15.6558C149.007 15.3457 148.891 15.084 148.659 14.8709C148.445 14.6383 148.184 14.522 147.874 14.522H137.756C137.446 14.522 137.175 14.6383 136.942 14.8709C136.729 15.084 136.623 15.3457 136.623 15.6558V19.3771ZM157.915 29C157.275 29 156.684 28.8449 156.141 28.5348C155.618 28.2054 155.192 27.779 154.862 27.2557C154.552 26.713 154.397 26.1218 154.397 25.4822V19.3771H169.166V15.6558C169.166 15.3457 169.049 15.084 168.817 14.8709C168.604 14.6383 168.342 14.522 168.032 14.522H154.397V12.1381H168.032C168.691 12.1381 169.282 12.3028 169.805 12.6323C170.348 12.9424 170.774 13.3688 171.084 13.9115C171.414 14.4348 171.579 15.0162 171.579 15.6558V29H157.915ZM157.915 26.6161H169.166V21.761H156.781V25.4822C156.781 25.7924 156.887 26.0637 157.101 26.2963C157.333 26.5095 157.605 26.6161 157.915 26.6161ZM174.073 29V12.1381H196.343C197.002 12.1381 197.593 12.3028 198.116 12.6323C198.659 12.9424 199.085 13.3688 199.395 13.9115C199.705 14.4348 199.86 15.0162 199.86 15.6558V29H197.506V15.6558C197.506 15.3457 197.389 15.084 197.157 14.8709C196.924 14.6383 196.653 14.522 196.343 14.522H189.336C189.026 14.522 188.755 14.6383 188.522 14.8709C188.309 15.084 188.202 15.3457 188.202 15.6558V29H185.789V15.6558C185.789 15.3457 185.673 15.084 185.441 14.8709C185.227 14.6383 184.966 14.522 184.656 14.522H177.62C177.31 14.522 177.039 14.6383 176.806 14.8709C176.593 15.084 176.486 15.3457 176.486 15.6558V29H174.073Z" fill="white"/>
<path d="M56.25 15L56.8068 19.6932L61.5 20.25L56.8068 20.8068L56.25 25.5L55.6932 20.8068L51 20.25L55.6932 19.6932L56.25 15Z" fill="white"/>
</svg>
